{
	"patcher" : 	{
		"fileversion" : 1,
		"rect" : [ 425.0, 60.0, 487.0, 341.0 ],
		"bglocked" : 0,
		"defrect" : [ 425.0, 60.0, 487.0, 341.0 ],
		"openrect" : [ 0.0, 0.0, 0.0, 0.0 ],
		"openinpresentation" : 0,
		"default_fontsize" : 12.0,
		"default_fontface" : 0,
		"default_fontname" : "Arial",
		"gridonopen" : 0,
		"gridsize" : [ 15.0, 15.0 ],
		"gridsnaponopen" : 0,
		"toolbarvisible" : 1,
		"boxanimatetime" : 200,
		"imprint" : 0,
		"enablehscroll" : 1,
		"enablevscroll" : 1,
		"devicewidth" : 0.0,
		"boxes" : [ 			{
				"box" : 				{
					"maxclass" : "comment",
					"text" : "sources",
					"numinlets" : 1,
					"numoutlets" : 0,
					"fontsize" : 12.0,
					"patching_rect" : [ 32.0, 19.0, 57.0, 20.0 ],
					"fontname" : "Arial",
					"id" : "obj-1"
				}

			}
, 			{
				"box" : 				{
					"maxclass" : "comment",
					"text" : "3",
					"numinlets" : 1,
					"numoutlets" : 0,
					"fontsize" : 12.0,
					"patching_rect" : [ 115.0, 19.0, 19.0, 20.0 ],
					"fontname" : "Arial",
					"id" : "obj-2"
				}

			}
, 			{
				"box" : 				{
					"maxclass" : "comment",
					"text" : "2",
					"numinlets" : 1,
					"numoutlets" : 0,
					"fontsize" : 12.0,
					"patching_rect" : [ 99.0, 19.0, 19.0, 20.0 ],
					"fontname" : "Arial",
					"id" : "obj-3"
				}

			}
, 			{
				"box" : 				{
					"maxclass" : "comment",
					"text" : "1",
					"numinlets" : 1,
					"numoutlets" : 0,
					"fontsize" : 12.0,
					"patching_rect" : [ 83.0, 19.0, 19.0, 20.0 ],
					"fontname" : "Arial",
					"id" : "obj-4"
				}

			}
, 			{
				"box" : 				{
					"maxclass" : "comment",
					"text" : "3",
					"numinlets" : 1,
					"numoutlets" : 0,
					"fontsize" : 12.0,
					"patching_rect" : [ 317.0, 35.0, 19.0, 20.0 ],
					"fontname" : "Arial",
					"id" : "obj-5"
				}

			}
, 			{
				"box" : 				{
					"maxclass" : "comment",
					"text" : "2",
					"numinlets" : 1,
					"numoutlets" : 0,
					"fontsize" : 12.0,
					"patching_rect" : [ 247.0, 35.0, 19.0, 20.0 ],
					"fontname" : "Arial",
					"id" : "obj-6"
				}

			}
, 			{
				"box" : 				{
					"maxclass" : "comment",
					"text" : "right channel",
					"numinlets" : 1,
					"numoutlets" : 0,
					"fontsize" : 12.0,
					"patching_rect" : [ 7.0, 52.0, 79.0, 20.0 ],
					"fontname" : "Arial",
					"id" : "obj-7"
				}

			}
, 			{
				"box" : 				{
					"maxclass" : "matrixctrl",
					"numinlets" : 1,
					"autosize" : 1,
					"scale" : 0,
					"numoutlets" : 2,
					"bkgndpict" : "MatrixDefaultBkgnd.pct",
					"outlettype" : [ "list", "list" ],
					"presentation_rect" : [ 0.0, 0.0, 48.0, 96.0 ],
					"columns" : 3,
					"rows" : 2,
					"patching_rect" : [ 82.0, 36.0, 50.0, 34.0 ],
					"cellpict" : "MatrixDefaultCell.pct",
					"id" : "obj-8"
				}

			}
, 			{
				"box" : 				{
					"maxclass" : "newobj",
					"text" : "cycle~ 1500",
					"numinlets" : 2,
					"numoutlets" : 1,
					"fontsize" : 12.0,
					"outlettype" : [ "signal" ],
					"patching_rect" : [ 317.0, 54.0, 75.0, 20.0 ],
					"fontname" : "Arial",
					"id" : "obj-9"
				}

			}
, 			{
				"box" : 				{
					"maxclass" : "newobj",
					"text" : "rect~ 440",
					"numinlets" : 3,
					"numoutlets" : 1,
					"fontsize" : 12.0,
					"outlettype" : [ "signal" ],
					"patching_rect" : [ 246.0, 54.0, 61.0, 20.0 ],
					"fontname" : "Arial",
					"id" : "obj-10"
				}

			}
, 			{
				"box" : 				{
					"maxclass" : "newobj",
					"text" : "noise~",
					"numinlets" : 1,
					"numoutlets" : 1,
					"fontsize" : 12.0,
					"outlettype" : [ "signal" ],
					"patching_rect" : [ 174.0, 54.0, 46.0, 20.0 ],
					"fontname" : "Arial",
					"id" : "obj-11"
				}

			}
, 			{
				"box" : 				{
					"maxclass" : "scope~",
					"rounded" : 0,
					"numinlets" : 2,
					"numoutlets" : 0,
					"calccount" : 6,
					"bgcolor" : [ 0.529412, 0.529412, 0.529412, 1.0 ],
					"patching_rect" : [ 27.0, 156.0, 130.0, 130.0 ],
					"id" : "obj-12"
				}

			}
, 			{
				"box" : 				{
					"maxclass" : "scope~",
					"rounded" : 0,
					"numinlets" : 2,
					"numoutlets" : 0,
					"calccount" : 6,
					"bgcolor" : [ 0.529412, 0.529412, 0.529412, 1.0 ],
					"patching_rect" : [ 246.0, 156.0, 130.0, 130.0 ],
					"id" : "obj-13"
				}

			}
, 			{
				"box" : 				{
					"maxclass" : "gain~",
					"numinlets" : 2,
					"orientation" : 2,
					"numoutlets" : 2,
					"outlettype" : [ "signal", "int" ],
					"patching_rect" : [ 199.0, 194.0, 19.0, 111.0 ],
					"id" : "obj-14"
				}

			}
, 			{
				"box" : 				{
					"maxclass" : "message",
					"text" : "stop",
					"numinlets" : 2,
					"numoutlets" : 1,
					"fontsize" : 12.0,
					"outlettype" : [ "" ],
					"patching_rect" : [ 96.0, 315.0, 33.0, 18.0 ],
					"fontname" : "Arial",
					"id" : "obj-15"
				}

			}
, 			{
				"box" : 				{
					"maxclass" : "message",
					"text" : "startwindow",
					"numinlets" : 2,
					"numoutlets" : 1,
					"fontsize" : 12.0,
					"outlettype" : [ "" ],
					"patching_rect" : [ 97.0, 293.0, 74.0, 18.0 ],
					"fontname" : "Arial",
					"id" : "obj-16"
				}

			}
, 			{
				"box" : 				{
					"maxclass" : "newobj",
					"text" : "dac~",
					"numinlets" : 2,
					"numoutlets" : 0,
					"fontsize" : 12.0,
					"patching_rect" : [ 178.0, 313.0, 37.0, 20.0 ],
					"fontname" : "Arial",
					"id" : "obj-17"
				}

			}
, 			{
				"box" : 				{
					"maxclass" : "gain~",
					"numinlets" : 2,
					"orientation" : 2,
					"numoutlets" : 2,
					"outlettype" : [ "signal", "int" ],
					"patching_rect" : [ 175.0, 194.0, 19.0, 111.0 ],
					"id" : "obj-18"
				}

			}
, 			{
				"box" : 				{
					"maxclass" : "newobj",
					"text" : "matrix~ 3 2",
					"numinlets" : 3,
					"numoutlets" : 3,
					"fontsize" : 12.0,
					"outlettype" : [ "signal", "signal", "list" ],
					"patching_rect" : [ 174.0, 83.0, 162.0, 20.0 ],
					"fontname" : "Arial",
					"id" : "obj-19"
				}

			}
, 			{
				"box" : 				{
					"maxclass" : "comment",
					"text" : "left channel",
					"numinlets" : 1,
					"numoutlets" : 0,
					"fontsize" : 12.0,
					"patching_rect" : [ 14.0, 35.0, 72.0, 20.0 ],
					"fontname" : "Arial",
					"id" : "obj-20"
				}

			}
, 			{
				"box" : 				{
					"maxclass" : "comment",
					"text" : "1",
					"numinlets" : 1,
					"numoutlets" : 0,
					"fontsize" : 12.0,
					"patching_rect" : [ 174.0, 35.0, 19.0, 20.0 ],
					"fontname" : "Arial",
					"id" : "obj-21"
				}

			}
, 			{
				"box" : 				{
					"maxclass" : "comment",
					"text" : "the final outlet can provide information about the connection state of matrix~",
					"linecount" : 3,
					"numinlets" : 1,
					"numoutlets" : 0,
					"fontsize" : 12.0,
					"patching_rect" : [ 330.0, 100.0, 152.0, 48.0 ],
					"fontname" : "Arial",
					"id" : "obj-22"
				}

			}
, 			{
				"box" : 				{
					"maxclass" : "comment",
					"text" : "^",
					"numinlets" : 1,
					"numoutlets" : 0,
					"fontsize" : 12.0,
					"patching_rect" : [ 320.0, 101.0, 19.0, 20.0 ],
					"fontname" : "Arial",
					"id" : "obj-23"
				}

			}
, 			{
				"box" : 				{
					"maxclass" : "comment",
					"text" : "matrixctrl",
					"numinlets" : 1,
					"numoutlets" : 0,
					"fontsize" : 12.0,
					"patching_rect" : [ 79.0, 2.0, 59.0, 20.0 ],
					"fontname" : "Arial",
					"id" : "obj-24"
				}

			}
 ],
		"lines" : [ 			{
				"patchline" : 				{
					"source" : [ "obj-19", 0 ],
					"destination" : [ "obj-12", 0 ],
					"hidden" : 0,
					"midpoints" : [ 183.5, 144.0, 36.5, 144.0 ]
				}

			}
, 			{
				"patchline" : 				{
					"source" : [ "obj-11", 0 ],
					"destination" : [ "obj-19", 0 ],
					"hidden" : 0,
					"midpoints" : [  ]
				}

			}
, 			{
				"patchline" : 				{
					"source" : [ "obj-8", 0 ],
					"destination" : [ "obj-19", 0 ],
					"hidden" : 0,
					"midpoints" : [ 91.5, 77.0, 183.5, 77.0 ]
				}

			}
, 			{
				"patchline" : 				{
					"source" : [ "obj-19", 0 ],
					"destination" : [ "obj-18", 0 ],
					"hidden" : 0,
					"midpoints" : [  ]
				}

			}
, 			{
				"patchline" : 				{
					"source" : [ "obj-15", 0 ],
					"destination" : [ "obj-17", 0 ],
					"hidden" : 0,
					"midpoints" : [  ]
				}

			}
, 			{
				"patchline" : 				{
					"source" : [ "obj-16", 0 ],
					"destination" : [ "obj-17", 0 ],
					"hidden" : 0,
					"midpoints" : [  ]
				}

			}
, 			{
				"patchline" : 				{
					"source" : [ "obj-18", 0 ],
					"destination" : [ "obj-17", 0 ],
					"hidden" : 0,
					"midpoints" : [  ]
				}

			}
, 			{
				"patchline" : 				{
					"source" : [ "obj-14", 0 ],
					"destination" : [ "obj-17", 1 ],
					"hidden" : 0,
					"midpoints" : [  ]
				}

			}
, 			{
				"patchline" : 				{
					"source" : [ "obj-19", 1 ],
					"destination" : [ "obj-14", 0 ],
					"hidden" : 0,
					"midpoints" : [ 255.0, 141.0, 206.5, 141.0 ]
				}

			}
, 			{
				"patchline" : 				{
					"source" : [ "obj-18", 1 ],
					"destination" : [ "obj-14", 0 ],
					"hidden" : 0,
					"midpoints" : [  ]
				}

			}
, 			{
				"patchline" : 				{
					"source" : [ "obj-10", 0 ],
					"destination" : [ "obj-19", 1 ],
					"hidden" : 0,
					"midpoints" : [  ]
				}

			}
, 			{
				"patchline" : 				{
					"source" : [ "obj-19", 1 ],
					"destination" : [ "obj-13", 0 ],
					"hidden" : 0,
					"midpoints" : [  ]
				}

			}
, 			{
				"patchline" : 				{
					"source" : [ "obj-9", 0 ],
					"destination" : [ "obj-19", 2 ],
					"hidden" : 0,
					"midpoints" : [  ]
				}

			}
 ]
	}

}
