{
	"patcher" : 	{
		"fileversion" : 1,
		"rect" : [ 98.0, 50.0, 959.0, 627.0 ],
		"bglocked" : 1,
		"defrect" : [ 98.0, 50.0, 959.0, 627.0 ],
		"openrect" : [ 0.0, 0.0, 0.0, 0.0 ],
		"openinpresentation" : 0,
		"default_fontsize" : 12.0,
		"default_fontface" : 0,
		"default_fontname" : "Arial",
		"gridonopen" : 0,
		"gridsize" : [ 15.0, 15.0 ],
		"gridsnaponopen" : 0,
		"toolbarvisible" : 1,
		"boxanimatetime" : 200,
		"imprint" : 0,
		"enablehscroll" : 1,
		"enablevscroll" : 1,
		"devicewidth" : 0.0,
		"boxes" : [ 			{
				"box" : 				{
					"maxclass" : "flonum",
					"outlettype" : [ "float", "bang" ],
					"patching_rect" : [ 323.0, 467.0, 50.0, 20.0 ],
					"id" : "obj-70",
					"fontname" : "Arial",
					"numinlets" : 1,
					"numoutlets" : 2,
					"fontsize" : 12.0
				}

			}
, 			{
				"box" : 				{
					"maxclass" : "newobj",
					"text" : "+ 1",
					"outlettype" : [ "int" ],
					"patching_rect" : [ 514.0, 398.0, 32.5, 20.0 ],
					"id" : "obj-42",
					"fontname" : "Arial",
					"numinlets" : 2,
					"numoutlets" : 1,
					"fontsize" : 12.0
				}

			}
, 			{
				"box" : 				{
					"maxclass" : "flonum",
					"outlettype" : [ "float", "bang" ],
					"patching_rect" : [ 707.0, 422.0, 50.0, 20.0 ],
					"id" : "obj-21",
					"fontname" : "Arial",
					"numinlets" : 1,
					"numoutlets" : 2,
					"fontsize" : 12.0
				}

			}
, 			{
				"box" : 				{
					"maxclass" : "flonum",
					"outlettype" : [ "float", "bang" ],
					"patching_rect" : [ 579.0, 422.0, 50.0, 20.0 ],
					"id" : "obj-19",
					"fontname" : "Arial",
					"numinlets" : 1,
					"numoutlets" : 2,
					"fontsize" : 12.0
				}

			}
, 			{
				"box" : 				{
					"maxclass" : "number",
					"outlettype" : [ "int", "bang" ],
					"patching_rect" : [ 514.0, 422.0, 50.0, 20.0 ],
					"id" : "obj-16",
					"fontname" : "Arial",
					"numinlets" : 1,
					"numoutlets" : 2,
					"fontsize" : 12.0
				}

			}
, 			{
				"box" : 				{
					"maxclass" : "comment",
					"text" : "envelope",
					"patching_rect" : [ 715.0, 177.0, 62.0, 20.0 ],
					"id" : "obj-13",
					"fontname" : "Arial",
					"numinlets" : 1,
					"numoutlets" : 0,
					"fontsize" : 12.0
				}

			}
, 			{
				"box" : 				{
					"maxclass" : "comment",
					"text" : "range of random notes",
					"patching_rect" : [ 342.0, 58.0, 136.0, 20.0 ],
					"id" : "obj-86",
					"fontname" : "Arial",
					"numinlets" : 1,
					"numoutlets" : 0,
					"fontsize" : 12.0
				}

			}
, 			{
				"box" : 				{
					"maxclass" : "number",
					"outlettype" : [ "int", "bang" ],
					"patching_rect" : [ 602.0, 362.0, 50.0, 20.0 ],
					"id" : "obj-84",
					"fontname" : "Arial",
					"numinlets" : 1,
					"numoutlets" : 2,
					"fontsize" : 12.0
				}

			}
, 			{
				"box" : 				{
					"maxclass" : "flonum",
					"outlettype" : [ "float", "bang" ],
					"patching_rect" : [ 115.0, 448.0, 50.0, 20.0 ],
					"id" : "obj-83",
					"fontname" : "Arial",
					"numinlets" : 1,
					"numoutlets" : 2,
					"fontsize" : 12.0
				}

			}
, 			{
				"box" : 				{
					"maxclass" : "number",
					"outlettype" : [ "int", "bang" ],
					"patching_rect" : [ 212.0, 448.0, 50.0, 20.0 ],
					"id" : "obj-82",
					"fontname" : "Arial",
					"numinlets" : 1,
					"numoutlets" : 2,
					"fontsize" : 12.0
				}

			}
, 			{
				"box" : 				{
					"maxclass" : "number",
					"outlettype" : [ "int", "bang" ],
					"patching_rect" : [ 11.0, 448.0, 50.0, 20.0 ],
					"id" : "obj-81",
					"fontname" : "Arial",
					"numinlets" : 1,
					"numoutlets" : 2,
					"fontsize" : 12.0
				}

			}
, 			{
				"box" : 				{
					"maxclass" : "number",
					"outlettype" : [ "int", "bang" ],
					"patching_rect" : [ 330.0, 382.0, 50.0, 20.0 ],
					"id" : "obj-79",
					"fontname" : "Arial",
					"numinlets" : 1,
					"numoutlets" : 2,
					"fontsize" : 12.0
				}

			}
, 			{
				"box" : 				{
					"maxclass" : "number",
					"outlettype" : [ "int", "bang" ],
					"patching_rect" : [ 169.0, 333.0, 50.0, 20.0 ],
					"id" : "obj-77",
					"fontname" : "Arial",
					"numinlets" : 1,
					"numoutlets" : 2,
					"fontsize" : 12.0
				}

			}
, 			{
				"box" : 				{
					"maxclass" : "flonum",
					"outlettype" : [ "float", "bang" ],
					"patching_rect" : [ 273.0, 334.0, 50.0, 20.0 ],
					"id" : "obj-75",
					"fontname" : "Arial",
					"numinlets" : 1,
					"numoutlets" : 2,
					"fontsize" : 12.0
				}

			}
, 			{
				"box" : 				{
					"maxclass" : "flonum",
					"outlettype" : [ "float", "bang" ],
					"patching_rect" : [ 65.0, 335.0, 50.0, 20.0 ],
					"id" : "obj-73",
					"fontname" : "Arial",
					"numinlets" : 1,
					"numoutlets" : 2,
					"fontsize" : 12.0
				}

			}
, 			{
				"box" : 				{
					"maxclass" : "newobj",
					"text" : "p calc_lpfreq",
					"outlettype" : [ "signal" ],
					"patching_rect" : [ 617.0, 390.0, 329.0, 20.0 ],
					"id" : "obj-71",
					"fontname" : "Arial",
					"numinlets" : 5,
					"numoutlets" : 1,
					"fontsize" : 12.0,
					"patcher" : 					{
						"fileversion" : 1,
						"rect" : [ 31.0, 91.0, 312.0, 321.0 ],
						"bglocked" : 0,
						"defrect" : [ 31.0, 91.0, 312.0, 321.0 ],
						"openrect" : [ 0.0, 0.0, 0.0, 0.0 ],
						"openinpresentation" : 0,
						"default_fontsize" : 12.0,
						"default_fontface" : 0,
						"default_fontname" : "Arial",
						"gridonopen" : 0,
						"gridsize" : [ 15.0, 15.0 ],
						"gridsnaponopen" : 0,
						"toolbarvisible" : 1,
						"boxanimatetime" : 200,
						"imprint" : 0,
						"enablehscroll" : 1,
						"enablevscroll" : 1,
						"devicewidth" : 0.0,
						"boxes" : [ 							{
								"box" : 								{
									"maxclass" : "comment",
									"text" : "envelope",
									"patching_rect" : [ 250.0, 19.0, 57.0, 20.0 ],
									"id" : "obj-6",
									"fontname" : "Arial",
									"numinlets" : 1,
									"numoutlets" : 0,
									"fontsize" : 12.0
								}

							}
, 							{
								"box" : 								{
									"maxclass" : "comment",
									"text" : "env depth",
									"linecount" : 2,
									"patching_rect" : [ 190.0, 5.0, 43.0, 34.0 ],
									"id" : "obj-5",
									"fontname" : "Arial",
									"numinlets" : 1,
									"numoutlets" : 0,
									"fontsize" : 12.0
								}

							}
, 							{
								"box" : 								{
									"maxclass" : "comment",
									"text" : "key follow",
									"linecount" : 2,
									"patching_rect" : [ 130.0, 5.0, 43.0, 34.0 ],
									"id" : "obj-4",
									"fontname" : "Arial",
									"numinlets" : 1,
									"numoutlets" : 0,
									"fontsize" : 12.0
								}

							}
, 							{
								"box" : 								{
									"maxclass" : "comment",
									"text" : "cutoff offset",
									"linecount" : 2,
									"patching_rect" : [ 45.0, 5.0, 43.0, 34.0 ],
									"id" : "obj-3",
									"fontname" : "Arial",
									"numinlets" : 1,
									"numoutlets" : 0,
									"fontsize" : 12.0
								}

							}
, 							{
								"box" : 								{
									"maxclass" : "comment",
									"text" : "note",
									"patching_rect" : [ 8.0, 19.0, 36.0, 20.0 ],
									"id" : "obj-2",
									"fontname" : "Arial",
									"numinlets" : 1,
									"numoutlets" : 0,
									"fontsize" : 12.0
								}

							}
, 							{
								"box" : 								{
									"maxclass" : "newobj",
									"text" : "pak 0. 0.",
									"outlettype" : [ "" ],
									"patching_rect" : [ 11.0, 176.0, 57.0, 20.0 ],
									"id" : "obj-12",
									"fontname" : "Arial",
									"numinlets" : 2,
									"numoutlets" : 1,
									"fontsize" : 12.0
								}

							}
, 							{
								"box" : 								{
									"maxclass" : "newobj",
									"text" : "mtof",
									"outlettype" : [ "" ],
									"patching_rect" : [ 11.0, 73.0, 34.0, 20.0 ],
									"id" : "obj-123",
									"fontname" : "Arial",
									"numinlets" : 1,
									"numoutlets" : 1,
									"fontsize" : 12.0
								}

							}
, 							{
								"box" : 								{
									"maxclass" : "newobj",
									"text" : "*~",
									"outlettype" : [ "signal" ],
									"patching_rect" : [ 146.0, 182.0, 32.5, 20.0 ],
									"id" : "obj-124",
									"fontname" : "Arial",
									"numinlets" : 2,
									"numoutlets" : 1,
									"fontsize" : 12.0
								}

							}
, 							{
								"box" : 								{
									"maxclass" : "newobj",
									"text" : "+ 0.",
									"outlettype" : [ "float" ],
									"patching_rect" : [ 11.0, 199.0, 32.5, 20.0 ],
									"id" : "obj-144",
									"fontname" : "Arial",
									"numinlets" : 2,
									"numoutlets" : 1,
									"fontsize" : 12.0
								}

							}
, 							{
								"box" : 								{
									"maxclass" : "newobj",
									"text" : "pak 0. 0.",
									"outlettype" : [ "" ],
									"patching_rect" : [ 11.0, 128.0, 142.0, 20.0 ],
									"id" : "obj-146",
									"fontname" : "Arial",
									"numinlets" : 2,
									"numoutlets" : 1,
									"fontsize" : 12.0
								}

							}
, 							{
								"box" : 								{
									"maxclass" : "newobj",
									"text" : "* 0.",
									"outlettype" : [ "float" ],
									"patching_rect" : [ 11.0, 153.0, 32.5, 20.0 ],
									"id" : "obj-147",
									"fontname" : "Arial",
									"numinlets" : 2,
									"numoutlets" : 1,
									"fontsize" : 12.0
								}

							}
, 							{
								"box" : 								{
									"maxclass" : "newobj",
									"text" : "*~",
									"outlettype" : [ "signal" ],
									"patching_rect" : [ 240.0, 144.0, 32.5, 20.0 ],
									"id" : "obj-151",
									"fontname" : "Arial",
									"numinlets" : 2,
									"numoutlets" : 1,
									"fontsize" : 12.0
								}

							}
, 							{
								"box" : 								{
									"maxclass" : "newobj",
									"text" : "+~",
									"outlettype" : [ "signal" ],
									"patching_rect" : [ 11.0, 252.0, 32.5, 20.0 ],
									"id" : "obj-152",
									"fontname" : "Arial",
									"numinlets" : 2,
									"numoutlets" : 1,
									"fontsize" : 12.0
								}

							}
, 							{
								"box" : 								{
									"maxclass" : "inlet",
									"outlettype" : [ "int" ],
									"patching_rect" : [ 11.0, 39.0, 25.0, 25.0 ],
									"id" : "obj-13",
									"numinlets" : 0,
									"numoutlets" : 1,
									"comment" : ""
								}

							}
, 							{
								"box" : 								{
									"maxclass" : "inlet",
									"outlettype" : [ "float" ],
									"patching_rect" : [ 49.0, 39.0, 25.0, 25.0 ],
									"id" : "obj-19",
									"numinlets" : 0,
									"numoutlets" : 1,
									"comment" : ""
								}

							}
, 							{
								"box" : 								{
									"maxclass" : "inlet",
									"outlettype" : [ "float" ],
									"patching_rect" : [ 133.0, 39.0, 25.0, 25.0 ],
									"id" : "obj-21",
									"numinlets" : 0,
									"numoutlets" : 1,
									"comment" : ""
								}

							}
, 							{
								"box" : 								{
									"maxclass" : "inlet",
									"outlettype" : [ "signal" ],
									"patching_rect" : [ 255.0, 39.0, 25.0, 25.0 ],
									"id" : "obj-42",
									"numinlets" : 0,
									"numoutlets" : 1,
									"comment" : ""
								}

							}
, 							{
								"box" : 								{
									"maxclass" : "inlet",
									"outlettype" : [ "float" ],
									"patching_rect" : [ 195.0, 39.0, 25.0, 25.0 ],
									"id" : "obj-58",
									"numinlets" : 0,
									"numoutlets" : 1,
									"comment" : ""
								}

							}
, 							{
								"box" : 								{
									"maxclass" : "outlet",
									"patching_rect" : [ 11.0, 293.0, 25.0, 25.0 ],
									"id" : "obj-70",
									"numinlets" : 1,
									"numoutlets" : 0,
									"comment" : ""
								}

							}
 ],
						"lines" : [ 							{
								"patchline" : 								{
									"source" : [ "obj-152", 0 ],
									"destination" : [ "obj-70", 0 ],
									"hidden" : 0,
									"midpoints" : [  ]
								}

							}
, 							{
								"patchline" : 								{
									"source" : [ "obj-21", 0 ],
									"destination" : [ "obj-146", 1 ],
									"hidden" : 0,
									"midpoints" : [  ]
								}

							}
, 							{
								"patchline" : 								{
									"source" : [ "obj-19", 0 ],
									"destination" : [ "obj-12", 1 ],
									"hidden" : 0,
									"midpoints" : [  ]
								}

							}
, 							{
								"patchline" : 								{
									"source" : [ "obj-13", 0 ],
									"destination" : [ "obj-123", 0 ],
									"hidden" : 0,
									"midpoints" : [  ]
								}

							}
, 							{
								"patchline" : 								{
									"source" : [ "obj-124", 0 ],
									"destination" : [ "obj-152", 1 ],
									"hidden" : 0,
									"midpoints" : [  ]
								}

							}
, 							{
								"patchline" : 								{
									"source" : [ "obj-144", 0 ],
									"destination" : [ "obj-152", 0 ],
									"hidden" : 0,
									"midpoints" : [  ]
								}

							}
, 							{
								"patchline" : 								{
									"source" : [ "obj-147", 0 ],
									"destination" : [ "obj-12", 0 ],
									"hidden" : 0,
									"midpoints" : [  ]
								}

							}
, 							{
								"patchline" : 								{
									"source" : [ "obj-12", 0 ],
									"destination" : [ "obj-144", 0 ],
									"hidden" : 0,
									"midpoints" : [  ]
								}

							}
, 							{
								"patchline" : 								{
									"source" : [ "obj-123", 0 ],
									"destination" : [ "obj-146", 0 ],
									"hidden" : 0,
									"midpoints" : [  ]
								}

							}
, 							{
								"patchline" : 								{
									"source" : [ "obj-146", 0 ],
									"destination" : [ "obj-147", 0 ],
									"hidden" : 0,
									"midpoints" : [  ]
								}

							}
, 							{
								"patchline" : 								{
									"source" : [ "obj-123", 0 ],
									"destination" : [ "obj-124", 0 ],
									"hidden" : 0,
									"midpoints" : [  ]
								}

							}
, 							{
								"patchline" : 								{
									"source" : [ "obj-151", 0 ],
									"destination" : [ "obj-124", 1 ],
									"hidden" : 0,
									"midpoints" : [  ]
								}

							}
, 							{
								"patchline" : 								{
									"source" : [ "obj-58", 0 ],
									"destination" : [ "obj-151", 0 ],
									"hidden" : 0,
									"midpoints" : [  ]
								}

							}
, 							{
								"patchline" : 								{
									"source" : [ "obj-42", 0 ],
									"destination" : [ "obj-151", 1 ],
									"hidden" : 0,
									"midpoints" : [  ]
								}

							}
 ]
					}
,
					"saved_object_attributes" : 					{
						"default_fontname" : "Arial",
						"default_fontsize" : 12.0,
						"fontname" : "Arial",
						"default_fontface" : 0,
						"globalpatchername" : "",
						"fontface" : 0,
						"fontsize" : 12.0
					}

				}

			}
, 			{
				"box" : 				{
					"maxclass" : "newobj",
					"text" : "subsynth.filter~",
					"outlettype" : [ "signal" ],
					"patching_rect" : [ 450.0, 449.0, 276.0, 20.0 ],
					"id" : "obj-165",
					"fontname" : "Arial",
					"numinlets" : 5,
					"numoutlets" : 1,
					"fontsize" : 12.0
				}

			}
, 			{
				"box" : 				{
					"maxclass" : "newobj",
					"text" : "pvar cutoff_hp",
					"outlettype" : [ "" ],
					"patching_rect" : [ 784.0, 422.0, 87.0, 20.0 ],
					"color" : [ 0.882353, 0.631373, 0.160784, 1.0 ],
					"id" : "obj-163",
					"fontname" : "Arial",
					"numinlets" : 1,
					"numoutlets" : 1,
					"fontsize" : 12.0
				}

			}
, 			{
				"box" : 				{
					"maxclass" : "newobj",
					"text" : "pvar quality",
					"outlettype" : [ "" ],
					"patching_rect" : [ 528.0, 339.0, 72.0, 20.0 ],
					"color" : [ 0.882353, 0.631373, 0.160784, 1.0 ],
					"id" : "obj-161",
					"fontname" : "Arial",
					"numinlets" : 1,
					"numoutlets" : 1,
					"fontsize" : 12.0
				}

			}
, 			{
				"box" : 				{
					"maxclass" : "newobj",
					"text" : "pvar envdepth",
					"outlettype" : [ "" ],
					"patching_rect" : [ 846.0, 339.0, 87.0, 20.0 ],
					"color" : [ 0.882353, 0.631373, 0.160784, 1.0 ],
					"id" : "obj-160",
					"fontname" : "Arial",
					"numinlets" : 1,
					"numoutlets" : 1,
					"fontsize" : 12.0
				}

			}
, 			{
				"box" : 				{
					"maxclass" : "newobj",
					"text" : "pvar keyfollow",
					"outlettype" : [ "" ],
					"patching_rect" : [ 758.0, 339.0, 87.0, 20.0 ],
					"color" : [ 0.882353, 0.631373, 0.160784, 1.0 ],
					"id" : "obj-159",
					"fontname" : "Arial",
					"numinlets" : 1,
					"numoutlets" : 1,
					"fontsize" : 12.0
				}

			}
, 			{
				"box" : 				{
					"maxclass" : "newobj",
					"text" : "pvar cutoff_lp",
					"outlettype" : [ "" ],
					"patching_rect" : [ 668.0, 339.0, 83.0, 20.0 ],
					"color" : [ 0.882353, 0.631373, 0.160784, 1.0 ],
					"id" : "obj-158",
					"fontname" : "Arial",
					"numinlets" : 1,
					"numoutlets" : 1,
					"fontsize" : 12.0
				}

			}
, 			{
				"box" : 				{
					"maxclass" : "newobj",
					"text" : "pvar nota",
					"outlettype" : [ "" ],
					"patching_rect" : [ 602.0, 339.0, 61.0, 20.0 ],
					"color" : [ 0.882353, 0.631373, 0.160784, 1.0 ],
					"id" : "obj-157",
					"fontname" : "Arial",
					"numinlets" : 1,
					"numoutlets" : 1,
					"fontsize" : 12.0
				}

			}
, 			{
				"box" : 				{
					"maxclass" : "newobj",
					"text" : "pvar filterorder",
					"outlettype" : [ "" ],
					"patching_rect" : [ 437.0, 339.0, 88.0, 20.0 ],
					"color" : [ 0.882353, 0.631373, 0.160784, 1.0 ],
					"id" : "obj-156",
					"fontname" : "Arial",
					"numinlets" : 1,
					"numoutlets" : 1,
					"fontsize" : 12.0
				}

			}
, 			{
				"box" : 				{
					"maxclass" : "flonum",
					"outlettype" : [ "float", "bang" ],
					"patching_rect" : [ 758.0, 362.0, 51.0, 20.0 ],
					"htextcolor" : [ 0.870588, 0.870588, 0.870588, 1.0 ],
					"id" : "obj-145",
					"triscale" : 0.9,
					"fontname" : "Arial",
					"numinlets" : 1,
					"numoutlets" : 2,
					"fontsize" : 12.0
				}

			}
, 			{
				"box" : 				{
					"maxclass" : "flonum",
					"outlettype" : [ "float", "bang" ],
					"patching_rect" : [ 846.0, 362.0, 60.0, 20.0 ],
					"htextcolor" : [ 0.870588, 0.870588, 0.870588, 1.0 ],
					"id" : "obj-148",
					"triscale" : 0.9,
					"fontname" : "Arial",
					"numinlets" : 1,
					"numoutlets" : 2,
					"fontsize" : 12.0
				}

			}
, 			{
				"box" : 				{
					"maxclass" : "flonum",
					"outlettype" : [ "float", "bang" ],
					"patching_rect" : [ 668.0, 362.0, 63.0, 20.0 ],
					"htextcolor" : [ 0.870588, 0.870588, 0.870588, 1.0 ],
					"id" : "obj-149",
					"triscale" : 0.9,
					"fontname" : "Arial",
					"numinlets" : 1,
					"numoutlets" : 2,
					"fontsize" : 12.0
				}

			}
, 			{
				"box" : 				{
					"maxclass" : "newobj",
					"text" : "pvar hardsync",
					"outlettype" : [ "" ],
					"patching_rect" : [ 330.0, 358.0, 86.0, 20.0 ],
					"color" : [ 0.882353, 0.631373, 0.160784, 1.0 ],
					"id" : "obj-122",
					"fontname" : "Arial",
					"numinlets" : 1,
					"numoutlets" : 1,
					"fontsize" : 12.0
				}

			}
, 			{
				"box" : 				{
					"maxclass" : "newobj",
					"text" : "pvar pulsewidth",
					"outlettype" : [ "" ],
					"patching_rect" : [ 285.0, 444.0, 94.0, 20.0 ],
					"color" : [ 0.882353, 0.631373, 0.160784, 1.0 ],
					"id" : "obj-121",
					"fontname" : "Arial",
					"numinlets" : 1,
					"numoutlets" : 1,
					"fontsize" : 12.0
				}

			}
, 			{
				"box" : 				{
					"maxclass" : "newobj",
					"text" : "pvar pulsewidth",
					"outlettype" : [ "" ],
					"patching_rect" : [ 115.0, 422.0, 94.0, 20.0 ],
					"color" : [ 0.882353, 0.631373, 0.160784, 1.0 ],
					"id" : "obj-120",
					"fontname" : "Arial",
					"numinlets" : 1,
					"numoutlets" : 1,
					"fontsize" : 12.0
				}

			}
, 			{
				"box" : 				{
					"maxclass" : "newobj",
					"text" : "pvar waveform2",
					"outlettype" : [ "" ],
					"patching_rect" : [ 212.0, 422.0, 96.0, 20.0 ],
					"color" : [ 0.882353, 0.631373, 0.160784, 1.0 ],
					"id" : "obj-119",
					"fontname" : "Arial",
					"numinlets" : 1,
					"numoutlets" : 1,
					"fontsize" : 12.0
				}

			}
, 			{
				"box" : 				{
					"maxclass" : "newobj",
					"text" : "pvar detune2",
					"outlettype" : [ "" ],
					"patching_rect" : [ 273.0, 310.0, 81.0, 20.0 ],
					"color" : [ 0.882353, 0.631373, 0.160784, 1.0 ],
					"id" : "obj-116",
					"fontname" : "Arial",
					"numinlets" : 1,
					"numoutlets" : 1,
					"fontsize" : 12.0
				}

			}
, 			{
				"box" : 				{
					"maxclass" : "newobj",
					"text" : "pvar detune1",
					"outlettype" : [ "" ],
					"patching_rect" : [ 65.0, 310.0, 81.0, 20.0 ],
					"color" : [ 0.882353, 0.631373, 0.160784, 1.0 ],
					"id" : "obj-117",
					"fontname" : "Arial",
					"numinlets" : 1,
					"numoutlets" : 1,
					"fontsize" : 12.0
				}

			}
, 			{
				"box" : 				{
					"maxclass" : "newobj",
					"text" : "pvar nota",
					"outlettype" : [ "" ],
					"patching_rect" : [ 169.0, 310.0, 61.0, 20.0 ],
					"color" : [ 0.882353, 0.631373, 0.160784, 1.0 ],
					"id" : "obj-118",
					"fontname" : "Arial",
					"numinlets" : 1,
					"numoutlets" : 1,
					"fontsize" : 12.0
				}

			}
, 			{
				"box" : 				{
					"maxclass" : "newobj",
					"text" : "pvar waveform1",
					"outlettype" : [ "" ],
					"patching_rect" : [ 11.0, 422.0, 96.0, 20.0 ],
					"color" : [ 0.882353, 0.631373, 0.160784, 1.0 ],
					"id" : "obj-115",
					"fontname" : "Arial",
					"numinlets" : 1,
					"numoutlets" : 1,
					"fontsize" : 12.0
				}

			}
, 			{
				"box" : 				{
					"maxclass" : "newobj",
					"text" : "pvar mix",
					"outlettype" : [ "" ],
					"patching_rect" : [ 291.0, 508.0, 56.0, 20.0 ],
					"color" : [ 0.882353, 0.631373, 0.160784, 1.0 ],
					"id" : "obj-114",
					"fontname" : "Arial",
					"numinlets" : 1,
					"numoutlets" : 1,
					"fontsize" : 12.0
				}

			}
, 			{
				"box" : 				{
					"maxclass" : "newobj",
					"text" : "p detuning",
					"outlettype" : [ "", "" ],
					"patching_rect" : [ 65.0, 359.0, 227.0, 20.0 ],
					"id" : "obj-93",
					"fontname" : "Arial",
					"numinlets" : 3,
					"numoutlets" : 2,
					"fontsize" : 12.0,
					"patcher" : 					{
						"fileversion" : 1,
						"rect" : [ 25.0, 69.0, 231.0, 224.0 ],
						"bglocked" : 0,
						"defrect" : [ 25.0, 69.0, 231.0, 224.0 ],
						"openrect" : [ 0.0, 0.0, 0.0, 0.0 ],
						"openinpresentation" : 0,
						"default_fontsize" : 12.0,
						"default_fontface" : 0,
						"default_fontname" : "Arial",
						"gridonopen" : 0,
						"gridsize" : [ 15.0, 15.0 ],
						"gridsnaponopen" : 0,
						"toolbarvisible" : 1,
						"boxanimatetime" : 200,
						"imprint" : 0,
						"enablehscroll" : 1,
						"enablevscroll" : 1,
						"devicewidth" : 0.0,
						"boxes" : [ 							{
								"box" : 								{
									"maxclass" : "comment",
									"text" : "freq2",
									"patching_rect" : [ 114.0, 200.0, 42.0, 20.0 ],
									"id" : "obj-6",
									"fontname" : "Arial",
									"numinlets" : 1,
									"numoutlets" : 0,
									"fontsize" : 12.0
								}

							}
, 							{
								"box" : 								{
									"maxclass" : "comment",
									"text" : "freq1",
									"patching_rect" : [ 43.0, 200.0, 42.0, 20.0 ],
									"id" : "obj-5",
									"fontname" : "Arial",
									"numinlets" : 1,
									"numoutlets" : 0,
									"fontsize" : 12.0
								}

							}
, 							{
								"box" : 								{
									"maxclass" : "comment",
									"text" : "note",
									"patching_rect" : [ 89.0, 3.0, 36.0, 20.0 ],
									"id" : "obj-4",
									"fontname" : "Arial",
									"numinlets" : 1,
									"numoutlets" : 0,
									"fontsize" : 12.0
								}

							}
, 							{
								"box" : 								{
									"maxclass" : "comment",
									"text" : "detune2",
									"patching_rect" : [ 169.0, 3.0, 55.0, 20.0 ],
									"id" : "obj-3",
									"fontname" : "Arial",
									"numinlets" : 1,
									"numoutlets" : 0,
									"fontsize" : 12.0
								}

							}
, 							{
								"box" : 								{
									"maxclass" : "comment",
									"text" : "detune1",
									"patching_rect" : [ 5.0, 3.0, 55.0, 20.0 ],
									"id" : "obj-2",
									"fontname" : "Arial",
									"numinlets" : 1,
									"numoutlets" : 0,
									"fontsize" : 12.0
								}

							}
, 							{
								"box" : 								{
									"maxclass" : "newobj",
									"text" : "mtof",
									"outlettype" : [ "" ],
									"patching_rect" : [ 43.0, 140.0, 34.0, 20.0 ],
									"id" : "obj-12",
									"fontname" : "Arial",
									"numinlets" : 1,
									"numoutlets" : 1,
									"fontsize" : 12.0
								}

							}
, 							{
								"box" : 								{
									"maxclass" : "newobj",
									"text" : "mtof",
									"outlettype" : [ "" ],
									"patching_rect" : [ 113.0, 141.0, 34.0, 20.0 ],
									"id" : "obj-13",
									"fontname" : "Arial",
									"numinlets" : 1,
									"numoutlets" : 1,
									"fontsize" : 12.0
								}

							}
, 							{
								"box" : 								{
									"maxclass" : "newobj",
									"text" : "pak 0. 0.",
									"outlettype" : [ "" ],
									"patching_rect" : [ 43.0, 85.0, 57.0, 20.0 ],
									"id" : "obj-15",
									"fontname" : "Arial",
									"numinlets" : 2,
									"numoutlets" : 1,
									"fontsize" : 12.0
								}

							}
, 							{
								"box" : 								{
									"maxclass" : "newobj",
									"text" : "+ 0.",
									"outlettype" : [ "float" ],
									"patching_rect" : [ 43.0, 112.0, 32.5, 20.0 ],
									"id" : "obj-16",
									"fontname" : "Arial",
									"numinlets" : 2,
									"numoutlets" : 1,
									"fontsize" : 12.0
								}

							}
, 							{
								"box" : 								{
									"maxclass" : "newobj",
									"text" : "pak 0. 0.",
									"outlettype" : [ "" ],
									"patching_rect" : [ 111.0, 85.0, 57.0, 20.0 ],
									"id" : "obj-18",
									"fontname" : "Arial",
									"numinlets" : 2,
									"numoutlets" : 1,
									"fontsize" : 12.0
								}

							}
, 							{
								"box" : 								{
									"maxclass" : "newobj",
									"text" : "+ 0.",
									"outlettype" : [ "float" ],
									"patching_rect" : [ 113.0, 115.0, 32.5, 20.0 ],
									"id" : "obj-19",
									"fontname" : "Arial",
									"numinlets" : 2,
									"numoutlets" : 1,
									"fontsize" : 12.0
								}

							}
, 							{
								"box" : 								{
									"maxclass" : "inlet",
									"outlettype" : [ "float" ],
									"patching_rect" : [ 7.0, 24.0, 25.0, 25.0 ],
									"id" : "obj-88",
									"numinlets" : 0,
									"numoutlets" : 1,
									"comment" : ""
								}

							}
, 							{
								"box" : 								{
									"maxclass" : "inlet",
									"outlettype" : [ "int" ],
									"patching_rect" : [ 91.0, 24.0, 25.0, 25.0 ],
									"id" : "obj-89",
									"numinlets" : 0,
									"numoutlets" : 1,
									"comment" : ""
								}

							}
, 							{
								"box" : 								{
									"maxclass" : "inlet",
									"outlettype" : [ "float" ],
									"patching_rect" : [ 174.0, 24.0, 25.0, 25.0 ],
									"id" : "obj-90",
									"numinlets" : 0,
									"numoutlets" : 1,
									"comment" : ""
								}

							}
, 							{
								"box" : 								{
									"maxclass" : "outlet",
									"patching_rect" : [ 43.0, 173.0, 25.0, 25.0 ],
									"id" : "obj-91",
									"numinlets" : 1,
									"numoutlets" : 0,
									"comment" : ""
								}

							}
, 							{
								"box" : 								{
									"maxclass" : "outlet",
									"patching_rect" : [ 113.0, 173.0, 25.0, 25.0 ],
									"id" : "obj-92",
									"numinlets" : 1,
									"numoutlets" : 0,
									"comment" : ""
								}

							}
 ],
						"lines" : [ 							{
								"patchline" : 								{
									"source" : [ "obj-19", 0 ],
									"destination" : [ "obj-13", 0 ],
									"hidden" : 0,
									"midpoints" : [  ]
								}

							}
, 							{
								"patchline" : 								{
									"source" : [ "obj-16", 0 ],
									"destination" : [ "obj-12", 0 ],
									"hidden" : 0,
									"midpoints" : [  ]
								}

							}
, 							{
								"patchline" : 								{
									"source" : [ "obj-15", 0 ],
									"destination" : [ "obj-16", 0 ],
									"hidden" : 0,
									"midpoints" : [  ]
								}

							}
, 							{
								"patchline" : 								{
									"source" : [ "obj-18", 0 ],
									"destination" : [ "obj-19", 0 ],
									"hidden" : 0,
									"midpoints" : [  ]
								}

							}
, 							{
								"patchline" : 								{
									"source" : [ "obj-88", 0 ],
									"destination" : [ "obj-15", 0 ],
									"hidden" : 0,
									"midpoints" : [  ]
								}

							}
, 							{
								"patchline" : 								{
									"source" : [ "obj-89", 0 ],
									"destination" : [ "obj-15", 1 ],
									"hidden" : 0,
									"midpoints" : [  ]
								}

							}
, 							{
								"patchline" : 								{
									"source" : [ "obj-89", 0 ],
									"destination" : [ "obj-18", 0 ],
									"hidden" : 0,
									"midpoints" : [  ]
								}

							}
, 							{
								"patchline" : 								{
									"source" : [ "obj-90", 0 ],
									"destination" : [ "obj-18", 1 ],
									"hidden" : 0,
									"midpoints" : [  ]
								}

							}
, 							{
								"patchline" : 								{
									"source" : [ "obj-12", 0 ],
									"destination" : [ "obj-91", 0 ],
									"hidden" : 0,
									"midpoints" : [  ]
								}

							}
, 							{
								"patchline" : 								{
									"source" : [ "obj-13", 0 ],
									"destination" : [ "obj-92", 0 ],
									"hidden" : 0,
									"midpoints" : [  ]
								}

							}
 ]
					}
,
					"saved_object_attributes" : 					{
						"default_fontname" : "Arial",
						"default_fontsize" : 12.0,
						"fontname" : "Arial",
						"default_fontface" : 0,
						"globalpatchername" : "",
						"fontface" : 0,
						"fontsize" : 12.0
					}

				}

			}
, 			{
				"box" : 				{
					"maxclass" : "newobj",
					"text" : "phasor~",
					"outlettype" : [ "signal" ],
					"patching_rect" : [ 172.0, 389.0, 54.0, 20.0 ],
					"id" : "obj-15",
					"fontname" : "Arial",
					"numinlets" : 2,
					"numoutlets" : 1,
					"fontsize" : 12.0
				}

			}
, 			{
				"box" : 				{
					"maxclass" : "flonum",
					"outlettype" : [ "float", "bang" ],
					"patching_rect" : [ 291.0, 552.0, 40.0, 18.0 ],
					"htextcolor" : [ 0.870588, 0.870588, 0.870588, 1.0 ],
					"id" : "obj-103",
					"triscale" : 0.9,
					"fontname" : "Helvetica",
					"numinlets" : 1,
					"numoutlets" : 2,
					"fontsize" : 12.0
				}

			}
, 			{
				"box" : 				{
					"maxclass" : "newobj",
					"text" : "/ 100.",
					"outlettype" : [ "float" ],
					"patching_rect" : [ 291.0, 531.0, 41.0, 18.0 ],
					"id" : "obj-104",
					"fontname" : "Helvetica",
					"numinlets" : 2,
					"numoutlets" : 1,
					"fontsize" : 12.0
				}

			}
, 			{
				"box" : 				{
					"maxclass" : "newobj",
					"text" : "*~",
					"outlettype" : [ "signal" ],
					"patching_rect" : [ 378.0, 420.0, 40.5, 18.0 ],
					"id" : "obj-105",
					"fontname" : "Helvetica",
					"numinlets" : 2,
					"numoutlets" : 1,
					"fontsize" : 12.0
				}

			}
, 			{
				"box" : 				{
					"maxclass" : "newobj",
					"text" : "vs.xfade~",
					"outlettype" : [ "signal" ],
					"patching_rect" : [ 99.0, 573.0, 211.0, 18.0 ],
					"id" : "obj-106",
					"fontname" : "Helvetica",
					"numinlets" : 3,
					"numoutlets" : 1,
					"fontsize" : 12.0
				}

			}
, 			{
				"box" : 				{
					"maxclass" : "newobj",
					"text" : "subsynth.oscil~",
					"outlettype" : [ "signal" ],
					"patching_rect" : [ 11.0, 475.0, 180.0, 18.0 ],
					"id" : "obj-107",
					"fontname" : "Helvetica",
					"numinlets" : 4,
					"numoutlets" : 1,
					"fontsize" : 12.0
				}

			}
, 			{
				"box" : 				{
					"maxclass" : "newobj",
					"text" : "subsynth.oscil~",
					"outlettype" : [ "signal" ],
					"patching_rect" : [ 212.0, 489.0, 185.0, 18.0 ],
					"id" : "obj-108",
					"fontname" : "Helvetica",
					"numinlets" : 4,
					"numoutlets" : 1,
					"fontsize" : 12.0
				}

			}
, 			{
				"box" : 				{
					"maxclass" : "comment",
					"text" : "OSC 2",
					"patching_rect" : [ 250.0, 174.0, 47.0, 20.0 ],
					"id" : "obj-1",
					"fontname" : "Arial",
					"numinlets" : 1,
					"numoutlets" : 0,
					"fontsize" : 12.0
				}

			}
, 			{
				"box" : 				{
					"maxclass" : "comment",
					"text" : "Highpass Filter",
					"patching_rect" : [ 481.0, 268.0, 106.0, 20.0 ],
					"id" : "obj-2",
					"fontname" : "Arial Bold",
					"numinlets" : 1,
					"numoutlets" : 0,
					"fontsize" : 12.0
				}

			}
, 			{
				"box" : 				{
					"maxclass" : "comment",
					"text" : "detune",
					"patching_rect" : [ 250.0, 190.0, 47.0, 20.0 ],
					"id" : "obj-3",
					"fontname" : "Arial",
					"numinlets" : 1,
					"numoutlets" : 0,
					"fontsize" : 12.0
				}

			}
, 			{
				"box" : 				{
					"maxclass" : "flonum",
					"outlettype" : [ "float", "bang" ],
					"bgcolor" : [ 0.866667, 0.866667, 0.866667, 1.0 ],
					"patching_rect" : [ 289.0, 5.0, 60.0, 20.0 ],
					"htextcolor" : [ 0.870588, 0.870588, 0.870588, 1.0 ],
					"id" : "obj-4",
					"triscale" : 0.9,
					"fontname" : "Arial",
					"numinlets" : 1,
					"numoutlets" : 2,
					"fontsize" : 12.0
				}

			}
, 			{
				"box" : 				{
					"maxclass" : "message",
					"text" : "setdomain $1",
					"outlettype" : [ "" ],
					"patching_rect" : [ 712.0, 149.0, 83.0, 18.0 ],
					"id" : "obj-5",
					"fontname" : "Arial",
					"numinlets" : 2,
					"numoutlets" : 1,
					"fontsize" : 12.0
				}

			}
, 			{
				"box" : 				{
					"maxclass" : "number",
					"outlettype" : [ "int", "bang" ],
					"bgcolor" : [ 0.866667, 0.866667, 0.866667, 1.0 ],
					"patching_rect" : [ 298.0, 57.0, 40.0, 20.0 ],
					"htextcolor" : [ 0.870588, 0.870588, 0.870588, 1.0 ],
					"id" : "obj-6",
					"triscale" : 0.9,
					"fontname" : "Arial",
					"numinlets" : 1,
					"numoutlets" : 2,
					"fontsize" : 12.0
				}

			}
, 			{
				"box" : 				{
					"maxclass" : "number",
					"outlettype" : [ "int", "bang" ],
					"bgcolor" : [ 0.866667, 0.866667, 0.866667, 1.0 ],
					"patching_rect" : [ 258.0, 57.0, 40.0, 20.0 ],
					"htextcolor" : [ 0.870588, 0.870588, 0.870588, 1.0 ],
					"id" : "obj-7",
					"triscale" : 0.9,
					"fontname" : "Arial",
					"numinlets" : 1,
					"numoutlets" : 2,
					"fontsize" : 12.0
				}

			}
, 			{
				"box" : 				{
					"maxclass" : "newobj",
					"text" : "vs.between 36 84",
					"outlettype" : [ "" ],
					"patching_rect" : [ 238.0, 81.0, 105.0, 20.0 ],
					"id" : "obj-8",
					"fontname" : "Arial",
					"numinlets" : 4,
					"numoutlets" : 1,
					"fontsize" : 12.0
				}

			}
, 			{
				"box" : 				{
					"maxclass" : "preset",
					"outlettype" : [ "preset", "int", "preset", "int" ],
					"patching_rect" : [ 171.0, 122.0, 57.0, 27.0 ],
					"spacing" : 2,
					"bubblesize" : 8,
					"margin" : 4,
					"id" : "obj-9",
					"numinlets" : 1,
					"numoutlets" : 4,
					"fontsize" : 12.0,
					"preset_data" : [ 						{
							"number" : 1,
							"data" : [ 5, "obj-59", "kslider", "int", 43, 4, "obj-57", "function", "clear", 7, "obj-57", "function", "add", 0.0, 0.0, 0, 7, "obj-57", "function", "add", 71.808502, 1.0, 0, 7, "obj-57", "function", "add", 327.127686, 0.64, 0, 7, "obj-57", "function", "add", 1300.531982, 0.64, 0, 7, "obj-57", "function", "add", 1499.999878, 0.0, 0, 5, "obj-57", "function", "domain", 1500.0, 6, "obj-57", "function", "range", 0.0, 1.0, 6, "obj-53", "gain~", "list", 111, 10.0, 5, "obj-49", "flonum", "float", 429.0, 5, "obj-48", "flonum", "float", 173.0, 5, "obj-47", "flonum", "float", 5.0, 5, "obj-46", "flonum", "float", 7.0, 5, "obj-44", "toggle", "int", 1, 5, "obj-39", "radiogroup", "int", 0, 5, "obj-35", "radiogroup", "int", 0, 5, "obj-31", "flonum", "float", 6.0, 5, "obj-28", "radiogroup", "int", 0, 5, "obj-24", "toggle", "int", 0, 5, "obj-23", "dial", "int", 49, 5, "obj-22", "number", "int", 49, 5, "obj-17", "flonum", "float", 0.2, 5, "obj-14", "flonum", "float", 0.0, 5, "obj-11", "flonum", "float", 0.5, 5, "obj-7", "number", "int", 36, 5, "obj-6", "number", "int", 84, 5, "obj-4", "flonum", "float", 1500.0 ]
						}
, 						{
							"number" : 2,
							"data" : [ 5, "obj-59", "kslider", "int", 51, 4, "obj-57", "function", "clear", 7, "obj-57", "function", "add", 0.0, 0.0, 0, 7, "obj-57", "function", "add", 10.638297, 1.0, 0, 7, "obj-57", "function", "add", 218.085175, 0.64, 0, 7, "obj-57", "function", "add", 840.425476, 0.373333, 0, 7, "obj-57", "function", "add", 999.999878, 0.0, 0, 5, "obj-57", "function", "domain", 1000.0, 6, "obj-57", "function", "range", 0.0, 1.0, 6, "obj-53", "gain~", "list", 114, 10.0, 5, "obj-49", "flonum", "float", 310.0, 5, "obj-48", "flonum", "float", 300.0, 5, "obj-47", "flonum", "float", 0.0, 5, "obj-46", "flonum", "float", 3.0, 5, "obj-44", "toggle", "int", 1, 5, "obj-39", "radiogroup", "int", 0, 5, "obj-35", "radiogroup", "int", 0, 5, "obj-31", "flonum", "float", 12.0, 5, "obj-28", "radiogroup", "int", 0, 5, "obj-24", "toggle", "int", 0, 5, "obj-23", "dial", "int", 50, 5, "obj-22", "number", "int", 50, 5, "obj-17", "flonum", "float", 7.0, 5, "obj-14", "flonum", "float", 0.0, 5, "obj-11", "flonum", "float", 0.5, 5, "obj-7", "number", "int", 36, 5, "obj-6", "number", "int", 60, 5, "obj-4", "flonum", "float", 1000.0 ]
						}
, 						{
							"number" : 3,
							"data" : [ 5, "obj-59", "kslider", "int", 39, 4, "obj-57", "function", "clear", 7, "obj-57", "function", "add", 0.0, 0.0, 0, 7, "obj-57", "function", "add", 1.329787, 1.0, 0, 7, "obj-57", "function", "add", 34.574425, 0.44, 0, 7, "obj-57", "function", "add", 83.776642, 0.08, 0, 7, "obj-57", "function", "add", 124.999939, 0.0, 0, 5, "obj-57", "function", "domain", 125.0, 6, "obj-57", "function", "range", 0.0, 1.0, 6, "obj-53", "gain~", "list", 114, 10.0, 5, "obj-49", "flonum", "float", 31.0, 5, "obj-48", "flonum", "float", 69.0, 5, "obj-47", "flonum", "float", 0.0, 5, "obj-46", "flonum", "float", 60.0, 5, "obj-44", "toggle", "int", 1, 5, "obj-39", "radiogroup", "int", 0, 5, "obj-35", "radiogroup", "int", 2, 5, "obj-31", "flonum", "float", 8.0, 5, "obj-28", "radiogroup", "int", 2, 5, "obj-24", "toggle", "int", 1, 5, "obj-23", "dial", "int", 100, 5, "obj-22", "number", "int", 100, 5, "obj-17", "flonum", "float", -8.0, 5, "obj-14", "flonum", "float", 0.0, 5, "obj-11", "flonum", "float", 0.1, 5, "obj-7", "number", "int", 36, 5, "obj-6", "number", "int", 48, 5, "obj-4", "flonum", "float", 125.0 ]
						}
, 						{
							"number" : 4,
							"data" : [ 5, "obj-59", "kslider", "int", 43, 4, "obj-57", "function", "clear", 7, "obj-57", "function", "add", 0.0, 0.0, 0, 7, "obj-57", "function", "add", 42.553188, 1.0, 0, 7, "obj-57", "function", "add", 3404.255127, 1.0, 0, 7, "obj-57", "function", "add", 3829.787109, 0.373333, 0, 7, "obj-57", "function", "add", 3999.999268, 0.0, 0, 5, "obj-57", "function", "domain", 4000.0, 6, "obj-57", "function", "range", 0.0, 1.0, 6, "obj-53", "gain~", "list", 114, 10.0, 5, "obj-49", "flonum", "float", 310.0, 5, "obj-48", "flonum", "float", 60.0, 5, "obj-47", "flonum", "float", 0.0, 5, "obj-46", "flonum", "float", 10.0, 5, "obj-44", "toggle", "int", 1, 5, "obj-39", "radiogroup", "int", 0, 5, "obj-35", "radiogroup", "int", 2, 5, "obj-31", "flonum", "float", 6.0, 5, "obj-28", "radiogroup", "int", 2, 5, "obj-24", "toggle", "int", 0, 5, "obj-23", "dial", "int", 50, 5, "obj-22", "number", "int", 50, 5, "obj-17", "flonum", "float", 0.06, 5, "obj-14", "flonum", "float", 0.0, 5, "obj-11", "flonum", "float", 0.42, 5, "obj-7", "number", "int", 36, 5, "obj-6", "number", "int", 48, 5, "obj-4", "flonum", "float", 4000.0 ]
						}
, 						{
							"number" : 5,
							"data" : [ 5, "obj-59", "kslider", "int", 53, 4, "obj-57", "function", "clear", 7, "obj-57", "function", "add", 0.0, 0.0, 0, 7, "obj-57", "function", "add", 138.297867, 1.0, 0, 7, "obj-57", "function", "add", 1138.297852, 1.0, 0, 7, "obj-57", "function", "add", 1914.893555, 0.373333, 0, 7, "obj-57", "function", "add", 1999.999634, 0.0, 0, 5, "obj-57", "function", "domain", 2000.0, 6, "obj-57", "function", "range", 0.0, 1.0, 6, "obj-53", "gain~", "list", 124, 10.0, 5, "obj-49", "flonum", "float", 310.0, 5, "obj-48", "flonum", "float", 60.0, 5, "obj-47", "flonum", "float", 7.0, 5, "obj-46", "flonum", "float", 1.0, 5, "obj-44", "toggle", "int", 1, 5, "obj-39", "radiogroup", "int", 1, 5, "obj-35", "radiogroup", "int", 1, 5, "obj-31", "flonum", "float", 7.0, 5, "obj-28", "radiogroup", "int", 1, 5, "obj-24", "toggle", "int", 0, 5, "obj-23", "dial", "int", 50, 5, "obj-22", "number", "int", 50, 5, "obj-17", "flonum", "float", 0.1, 5, "obj-14", "flonum", "float", -0.1, 5, "obj-11", "flonum", "float", 0.42, 5, "obj-7", "number", "int", 48, 5, "obj-6", "number", "int", 72, 5, "obj-4", "flonum", "float", 2000.0 ]
						}
, 						{
							"number" : 6,
							"data" : [ 5, "obj-59", "kslider", "int", 56, 4, "obj-57", "function", "clear", 7, "obj-57", "function", "add", 0.0, 0.0, 0, 7, "obj-57", "function", "add", 1.329787, 1.0, 0, 7, "obj-57", "function", "add", 1.994681, 1.0, 0, 7, "obj-57", "function", "add", 36.569149, 0.106667, 0, 7, "obj-57", "function", "add", 121.010635, 0.106667, 0, 7, "obj-57", "function", "add", 124.999977, 0.0, 0, 5, "obj-57", "function", "domain", 125.0, 6, "obj-57", "function", "range", 0.0, 1.0, 6, "obj-53", "gain~", "list", 124, 10.0, 5, "obj-49", "flonum", "float", 310.0, 5, "obj-48", "flonum", "float", 60.0, 5, "obj-47", "flonum", "float", 0.0, 5, "obj-46", "flonum", "float", 9.0, 5, "obj-44", "toggle", "int", 1, 5, "obj-39", "radiogroup", "int", 0, 5, "obj-35", "radiogroup", "int", 0, 5, "obj-31", "flonum", "float", 10.0, 5, "obj-28", "radiogroup", "int", 3, 5, "obj-24", "toggle", "int", 0, 5, "obj-23", "dial", "int", 50, 5, "obj-22", "number", "int", 50, 5, "obj-17", "flonum", "float", -12.0, 5, "obj-14", "flonum", "float", 0.0, 5, "obj-11", "flonum", "float", 0.42, 5, "obj-7", "number", "int", 36, 5, "obj-6", "number", "int", 60, 5, "obj-4", "flonum", "float", 125.0 ]
						}
, 						{
							"number" : 7,
							"data" : [ 5, "obj-59", "kslider", "int", 58, 4, "obj-57", "function", "clear", 7, "obj-57", "function", "add", 0.0, 0.0, 0, 7, "obj-57", "function", "add", 1.329787, 1.0, 0, 7, "obj-57", "function", "add", 1.994681, 1.0, 0, 7, "obj-57", "function", "add", 28.590425, 0.173333, 0, 7, "obj-57", "function", "add", 123.005318, 0.173333, 0, 7, "obj-57", "function", "add", 124.999977, 0.0, 0, 5, "obj-57", "function", "domain", 125.0, 6, "obj-57", "function", "range", 0.0, 1.0, 6, "obj-53", "gain~", "list", 124, 10.0, 5, "obj-49", "flonum", "float", 310.0, 5, "obj-48", "flonum", "float", 820.0, 5, "obj-47", "flonum", "float", 4.0, 5, "obj-46", "flonum", "float", 9.0, 5, "obj-44", "toggle", "int", 1, 5, "obj-39", "radiogroup", "int", 0, 5, "obj-35", "radiogroup", "int", 2, 5, "obj-31", "flonum", "float", 10.0, 5, "obj-28", "radiogroup", "int", 2, 5, "obj-24", "toggle", "int", 0, 5, "obj-23", "dial", "int", 50, 5, "obj-22", "number", "int", 50, 5, "obj-17", "flonum", "float", -11.0, 5, "obj-14", "flonum", "float", 0.0, 5, "obj-11", "flonum", "float", 0.1, 5, "obj-7", "number", "int", 36, 5, "obj-6", "number", "int", 60, 5, "obj-4", "flonum", "float", 125.0 ]
						}
, 						{
							"number" : 8,
							"data" : [ 5, "obj-59", "kslider", "int", 56, 4, "obj-57", "function", "clear", 7, "obj-57", "function", "add", 0.0, 0.0, 0, 7, "obj-57", "function", "add", 7.978707, 0.173333, 0, 7, "obj-57", "function", "add", 234.043045, 0.453333, 0, 7, "obj-57", "function", "add", 436.170563, 0.92, 0, 7, "obj-57", "function", "add", 492.020477, 0.173333, 0, 7, "obj-57", "function", "add", 499.999939, 0.0, 0, 5, "obj-57", "function", "domain", 500.0, 6, "obj-57", "function", "range", 0.0, 1.0, 6, "obj-53", "gain~", "list", 115, 10.0, 5, "obj-49", "flonum", "float", 40.0, 5, "obj-48", "flonum", "float", 377.0, 5, "obj-47", "flonum", "float", 0.0, 5, "obj-46", "flonum", "float", 3.0, 5, "obj-44", "toggle", "int", 1, 5, "obj-39", "radiogroup", "int", 0, 5, "obj-35", "radiogroup", "int", 2, 5, "obj-31", "flonum", "float", 7.0, 5, "obj-28", "radiogroup", "int", 3, 5, "obj-24", "toggle", "int", 1, 5, "obj-23", "dial", "int", 83, 5, "obj-22", "number", "int", 83, 5, "obj-17", "flonum", "float", 18.43, 5, "obj-14", "flonum", "float", 0.0, 5, "obj-11", "flonum", "float", 0.1, 5, "obj-7", "number", "int", 36, 5, "obj-6", "number", "int", 74, 5, "obj-4", "flonum", "float", 500.0 ]
						}
, 						{
							"number" : 9,
							"data" : [ 5, "obj-59", "kslider", "int", 44, 4, "obj-57", "function", "clear", 7, "obj-57", "function", "add", 0.0, 0.0, 0, 7, "obj-57", "function", "add", 10.638295, 1.0, 0, 7, "obj-57", "function", "add", 877.660461, 0.08, 0, 7, "obj-57", "function", "add", 999.999939, 0.0, 0, 5, "obj-57", "function", "domain", 1000.0, 6, "obj-57", "function", "range", 0.0, 1.0, 6, "obj-53", "gain~", "list", 114, 10.0, 5, "obj-49", "flonum", "float", 310.0, 5, "obj-48", "flonum", "float", 51.0, 5, "obj-47", "flonum", "float", 1.0, 5, "obj-46", "flonum", "float", 8.0, 5, "obj-44", "toggle", "int", 1, 5, "obj-39", "radiogroup", "int", 0, 5, "obj-35", "radiogroup", "int", 0, 5, "obj-31", "flonum", "float", 12.0, 5, "obj-28", "radiogroup", "int", 2, 5, "obj-24", "toggle", "int", 0, 5, "obj-23", "dial", "int", 24, 5, "obj-22", "number", "int", 24, 5, "obj-17", "flonum", "float", 0.0, 5, "obj-14", "flonum", "float", -24.0, 5, "obj-11", "flonum", "float", 0.2, 5, "obj-7", "number", "int", 36, 5, "obj-6", "number", "int", 60, 5, "obj-4", "flonum", "float", 1000.0 ]
						}
, 						{
							"number" : 10,
							"data" : [ 5, "obj-59", "kslider", "int", 74, 4, "obj-57", "function", "clear", 7, "obj-57", "function", "add", 0.0, 0.0, 0, 7, "obj-57", "function", "add", 207.446808, 1.0, 0, 7, "obj-57", "function", "add", 642.287231, 1.0, 0, 7, "obj-57", "function", "add", 718.084412, 0.106667, 0, 7, "obj-57", "function", "add", 749.999939, 0.0, 0, 5, "obj-57", "function", "domain", 750.0, 6, "obj-57", "function", "range", 0.0, 1.0, 6, "obj-53", "gain~", "list", 102, 10.0, 5, "obj-49", "flonum", "float", 0.0, 5, "obj-48", "flonum", "float", 779.0, 5, "obj-47", "flonum", "float", 1.0, 5, "obj-46", "flonum", "float", 0.0, 5, "obj-44", "toggle", "int", 1, 5, "obj-39", "radiogroup", "int", 1, 5, "obj-35", "radiogroup", "int", 1, 5, "obj-31", "flonum", "float", 30.0, 5, "obj-28", "radiogroup", "int", 3, 5, "obj-24", "toggle", "int", 0, 5, "obj-23", "dial", "int", 24, 5, "obj-22", "number", "int", 24, 5, "obj-17", "flonum", "float", -0.17, 5, "obj-14", "flonum", "float", 0.0, 5, "obj-11", "flonum", "float", 0.5, 5, "obj-7", "number", "int", 72, 5, "obj-6", "number", "int", 96, 5, "obj-4", "flonum", "float", 750.0 ]
						}
 ]
				}

			}
, 			{
				"box" : 				{
					"maxclass" : "comment",
					"text" : "detune",
					"patching_rect" : [ 120.0, 190.0, 47.0, 20.0 ],
					"id" : "obj-10",
					"fontname" : "Arial",
					"numinlets" : 1,
					"numoutlets" : 0,
					"fontsize" : 12.0
				}

			}
, 			{
				"box" : 				{
					"maxclass" : "flonum",
					"varname" : "pulsewidth",
					"outlettype" : [ "float", "bang" ],
					"bgcolor" : [ 0.866667, 0.866667, 0.866667, 1.0 ],
					"patching_rect" : [ 331.0, 261.0, 52.0, 20.0 ],
					"htextcolor" : [ 0.870588, 0.870588, 0.870588, 1.0 ],
					"id" : "obj-11",
					"triscale" : 0.9,
					"fontname" : "Arial",
					"maximum" : 1.0,
					"numinlets" : 1,
					"minimum" : 0.0,
					"numoutlets" : 2,
					"fontsize" : 12.0
				}

			}
, 			{
				"box" : 				{
					"maxclass" : "flonum",
					"varname" : "detune1",
					"outlettype" : [ "float", "bang" ],
					"bgcolor" : [ 0.866667, 0.866667, 0.866667, 1.0 ],
					"patching_rect" : [ 120.0, 207.0, 52.0, 20.0 ],
					"htextcolor" : [ 0.870588, 0.870588, 0.870588, 1.0 ],
					"id" : "obj-14",
					"triscale" : 0.9,
					"fontname" : "Arial",
					"numinlets" : 1,
					"numoutlets" : 2,
					"fontsize" : 12.0
				}

			}
, 			{
				"box" : 				{
					"maxclass" : "flonum",
					"varname" : "detune2",
					"outlettype" : [ "float", "bang" ],
					"bgcolor" : [ 0.866667, 0.866667, 0.866667, 1.0 ],
					"patching_rect" : [ 250.0, 207.0, 52.0, 20.0 ],
					"htextcolor" : [ 0.870588, 0.870588, 0.870588, 1.0 ],
					"id" : "obj-17",
					"triscale" : 0.9,
					"fontname" : "Arial",
					"numinlets" : 1,
					"numoutlets" : 2,
					"fontsize" : 12.0
				}

			}
, 			{
				"box" : 				{
					"maxclass" : "message",
					"text" : "clear",
					"outlettype" : [ "" ],
					"patching_rect" : [ 671.0, 149.0, 37.0, 18.0 ],
					"id" : "obj-20",
					"fontname" : "Arial",
					"numinlets" : 2,
					"numoutlets" : 1,
					"fontsize" : 12.0
				}

			}
, 			{
				"box" : 				{
					"maxclass" : "number",
					"varname" : "mix",
					"outlettype" : [ "int", "bang" ],
					"bgcolor" : [ 0.866667, 0.866667, 0.866667, 1.0 ],
					"patching_rect" : [ 191.0, 274.0, 37.0, 20.0 ],
					"htextcolor" : [ 0.870588, 0.870588, 0.870588, 1.0 ],
					"id" : "obj-22",
					"triscale" : 0.9,
					"fontname" : "Arial",
					"numinlets" : 1,
					"numoutlets" : 2,
					"fontsize" : 12.0
				}

			}
, 			{
				"box" : 				{
					"maxclass" : "dial",
					"outlettype" : [ "float" ],
					"bgcolor" : [ 0.866667, 0.866667, 0.866667, 1.0 ],
					"patching_rect" : [ 191.0, 225.0, 40.0, 40.0 ],
					"outlinecolor" : [ 0.882353, 0.882353, 0.882353, 1.0 ],
					"size" : 101.0,
					"id" : "obj-23",
					"numinlets" : 1,
					"fgcolor" : [ 0.666667, 0.666667, 0.666667, 1.0 ],
					"numoutlets" : 1,
					"needlecolor" : [ 0.0, 0.0, 0.0, 1.0 ]
				}

			}
, 			{
				"box" : 				{
					"maxclass" : "toggle",
					"varname" : "hardsync",
					"outlettype" : [ "int" ],
					"patching_rect" : [ 351.0, 202.0, 20.0, 20.0 ],
					"id" : "obj-24",
					"numinlets" : 1,
					"numoutlets" : 1
				}

			}
, 			{
				"box" : 				{
					"maxclass" : "comment",
					"text" : "noise",
					"patching_rect" : [ 137.0, 277.0, 39.0, 20.0 ],
					"id" : "obj-25",
					"fontname" : "Arial",
					"numinlets" : 1,
					"numoutlets" : 0,
					"fontsize" : 12.0
				}

			}
, 			{
				"box" : 				{
					"maxclass" : "comment",
					"text" : "square",
					"patching_rect" : [ 137.0, 261.0, 51.0, 20.0 ],
					"id" : "obj-26",
					"fontname" : "Arial",
					"numinlets" : 1,
					"numoutlets" : 0,
					"fontsize" : 12.0
				}

			}
, 			{
				"box" : 				{
					"maxclass" : "comment",
					"text" : "triang",
					"patching_rect" : [ 137.0, 246.0, 41.0, 20.0 ],
					"id" : "obj-27",
					"fontname" : "Arial",
					"numinlets" : 1,
					"numoutlets" : 0,
					"fontsize" : 12.0
				}

			}
, 			{
				"box" : 				{
					"maxclass" : "radiogroup",
					"varname" : "waveform1",
					"outlettype" : [ "" ],
					"patching_rect" : [ 120.0, 230.0, 18.0, 66.0 ],
					"id" : "obj-28",
					"numinlets" : 1,
					"numoutlets" : 1,
					"itemtype" : 0,
					"size" : 4,
					"value" : 2,
					"disabled" : [ 0, 0, 0, 0 ]
				}

			}
, 			{
				"box" : 				{
					"maxclass" : "comment",
					"text" : "saw",
					"patching_rect" : [ 137.0, 229.0, 32.0, 20.0 ],
					"id" : "obj-29",
					"fontname" : "Arial",
					"numinlets" : 1,
					"numoutlets" : 0,
					"fontsize" : 12.0
				}

			}
, 			{
				"box" : 				{
					"maxclass" : "comment",
					"text" : "Q",
					"patching_rect" : [ 605.0, 212.0, 20.0, 20.0 ],
					"id" : "obj-30",
					"fontname" : "Arial",
					"numinlets" : 1,
					"numoutlets" : 0,
					"fontsize" : 12.0
				}

			}
, 			{
				"box" : 				{
					"maxclass" : "flonum",
					"varname" : "quality",
					"outlettype" : [ "float", "bang" ],
					"bgcolor" : [ 0.866667, 0.866667, 0.866667, 1.0 ],
					"patching_rect" : [ 591.0, 229.0, 50.0, 20.0 ],
					"htextcolor" : [ 0.870588, 0.870588, 0.870588, 1.0 ],
					"id" : "obj-31",
					"triscale" : 0.9,
					"fontname" : "Arial",
					"numinlets" : 1,
					"numoutlets" : 2,
					"fontsize" : 12.0
				}

			}
, 			{
				"box" : 				{
					"maxclass" : "comment",
					"text" : "noise",
					"patching_rect" : [ 266.0, 277.0, 39.0, 20.0 ],
					"id" : "obj-32",
					"fontname" : "Arial",
					"numinlets" : 1,
					"numoutlets" : 0,
					"fontsize" : 12.0
				}

			}
, 			{
				"box" : 				{
					"maxclass" : "comment",
					"text" : "square",
					"patching_rect" : [ 266.0, 261.0, 51.0, 20.0 ],
					"id" : "obj-33",
					"fontname" : "Arial",
					"numinlets" : 1,
					"numoutlets" : 0,
					"fontsize" : 12.0
				}

			}
, 			{
				"box" : 				{
					"maxclass" : "comment",
					"text" : "triang",
					"patching_rect" : [ 266.0, 246.0, 41.0, 20.0 ],
					"id" : "obj-34",
					"fontname" : "Arial",
					"numinlets" : 1,
					"numoutlets" : 0,
					"fontsize" : 12.0
				}

			}
, 			{
				"box" : 				{
					"maxclass" : "radiogroup",
					"varname" : "waveform2",
					"outlettype" : [ "" ],
					"patching_rect" : [ 250.0, 230.0, 18.0, 66.0 ],
					"id" : "obj-35",
					"numinlets" : 1,
					"numoutlets" : 1,
					"itemtype" : 0,
					"size" : 4,
					"value" : 2,
					"disabled" : [ 0, 0, 0, 0 ]
				}

			}
, 			{
				"box" : 				{
					"maxclass" : "comment",
					"text" : "saw",
					"patching_rect" : [ 266.0, 229.0, 32.0, 20.0 ],
					"id" : "obj-36",
					"fontname" : "Arial",
					"numinlets" : 1,
					"numoutlets" : 0,
					"fontsize" : 12.0
				}

			}
, 			{
				"box" : 				{
					"maxclass" : "comment",
					"text" : "env depth",
					"patching_rect" : [ 532.0, 212.0, 63.0, 20.0 ],
					"id" : "obj-37",
					"fontname" : "Arial",
					"numinlets" : 1,
					"numoutlets" : 0,
					"fontsize" : 12.0
				}

			}
, 			{
				"box" : 				{
					"maxclass" : "comment",
					"text" : "24 dB",
					"patching_rect" : [ 429.0, 191.0, 42.0, 20.0 ],
					"id" : "obj-38",
					"fontname" : "Arial",
					"numinlets" : 1,
					"numoutlets" : 0,
					"fontsize" : 12.0
				}

			}
, 			{
				"box" : 				{
					"maxclass" : "radiogroup",
					"varname" : "filterorder",
					"outlettype" : [ "" ],
					"patching_rect" : [ 412.0, 175.0, 18.0, 34.0 ],
					"id" : "obj-39",
					"numinlets" : 1,
					"numoutlets" : 1,
					"itemtype" : 0,
					"size" : 2,
					"value" : 0,
					"disabled" : [ 0, 0 ]
				}

			}
, 			{
				"box" : 				{
					"maxclass" : "comment",
					"text" : "keyfollow",
					"patching_rect" : [ 476.0, 212.0, 60.0, 20.0 ],
					"id" : "obj-40",
					"fontname" : "Arial",
					"numinlets" : 1,
					"numoutlets" : 0,
					"fontsize" : 12.0
				}

			}
, 			{
				"box" : 				{
					"maxclass" : "comment",
					"text" : "cutoff",
					"patching_rect" : [ 412.0, 259.0, 40.0, 20.0 ],
					"id" : "obj-41",
					"fontname" : "Arial",
					"numinlets" : 1,
					"numoutlets" : 0,
					"fontsize" : 12.0
				}

			}
, 			{
				"box" : 				{
					"maxclass" : "spectroscope~",
					"outlettype" : [ "" ],
					"bgcolor" : [ 1.0, 1.0, 1.0, 1.0 ],
					"patching_rect" : [ 568.0, 492.0, 300.0, 100.0 ],
					"rounded" : 0,
					"bordercolor" : [ 0.0, 0.0, 0.0, 1.0 ],
					"sonomedhicolor" : [ 1.0, 0.74902, 0.0, 1.0 ],
					"markercolor" : [ 0.721569, 0.721569, 0.721569, 1.0 ],
					"sonomedcolor" : [ 0.0, 0.74902, 0.498039, 1.0 ],
					"sonomedlocolor" : [ 0.498039, 0.0, 0.498039, 1.0 ],
					"id" : "obj-43",
					"peakcolor" : [ 0.952941, 0.8, 0.8, 1.0 ],
					"numinlets" : 2,
					"fgcolor" : [ 0.878431, 0.878431, 0.878431, 1.0 ],
					"numoutlets" : 1
				}

			}
, 			{
				"box" : 				{
					"maxclass" : "toggle",
					"outlettype" : [ "int" ],
					"patching_rect" : [ 238.0, 10.0, 20.0, 20.0 ],
					"id" : "obj-44",
					"numinlets" : 1,
					"numoutlets" : 1
				}

			}
, 			{
				"box" : 				{
					"maxclass" : "newobj",
					"text" : "metro 1000",
					"outlettype" : [ "bang" ],
					"patching_rect" : [ 238.0, 35.0, 71.0, 20.0 ],
					"id" : "obj-45",
					"fontname" : "Arial",
					"numinlets" : 2,
					"numoutlets" : 1,
					"fontsize" : 12.0
				}

			}
, 			{
				"box" : 				{
					"maxclass" : "flonum",
					"varname" : "envdepth",
					"outlettype" : [ "float", "bang" ],
					"bgcolor" : [ 0.866667, 0.866667, 0.866667, 1.0 ],
					"patching_rect" : [ 537.0, 229.0, 50.0, 20.0 ],
					"htextcolor" : [ 0.870588, 0.870588, 0.870588, 1.0 ],
					"id" : "obj-46",
					"triscale" : 0.9,
					"fontname" : "Arial",
					"numinlets" : 1,
					"numoutlets" : 2,
					"fontsize" : 12.0
				}

			}
, 			{
				"box" : 				{
					"maxclass" : "flonum",
					"varname" : "keyfollow",
					"outlettype" : [ "float", "bang" ],
					"bgcolor" : [ 0.866667, 0.866667, 0.866667, 1.0 ],
					"patching_rect" : [ 483.0, 229.0, 40.0, 20.0 ],
					"htextcolor" : [ 0.870588, 0.870588, 0.870588, 1.0 ],
					"id" : "obj-47",
					"triscale" : 0.9,
					"fontname" : "Arial",
					"numinlets" : 1,
					"numoutlets" : 2,
					"fontsize" : 12.0
				}

			}
, 			{
				"box" : 				{
					"maxclass" : "flonum",
					"varname" : "cutoff_hp",
					"outlettype" : [ "float", "bang" ],
					"bgcolor" : [ 0.866667, 0.866667, 0.866667, 1.0 ],
					"patching_rect" : [ 412.0, 276.0, 60.0, 20.0 ],
					"htextcolor" : [ 0.870588, 0.870588, 0.870588, 1.0 ],
					"id" : "obj-48",
					"triscale" : 0.9,
					"fontname" : "Arial",
					"numinlets" : 1,
					"numoutlets" : 2,
					"fontsize" : 12.0
				}

			}
, 			{
				"box" : 				{
					"maxclass" : "flonum",
					"varname" : "cutoff_lp",
					"outlettype" : [ "float", "bang" ],
					"bgcolor" : [ 0.866667, 0.866667, 0.866667, 1.0 ],
					"patching_rect" : [ 412.0, 229.0, 60.0, 20.0 ],
					"htextcolor" : [ 0.870588, 0.870588, 0.870588, 1.0 ],
					"id" : "obj-49",
					"triscale" : 0.9,
					"fontname" : "Arial",
					"numinlets" : 1,
					"numoutlets" : 2,
					"fontsize" : 12.0
				}

			}
, 			{
				"box" : 				{
					"maxclass" : "message",
					"text" : "stop",
					"outlettype" : [ "" ],
					"patching_rect" : [ 462.0, 599.0, 33.0, 18.0 ],
					"id" : "obj-50",
					"fontname" : "Arial",
					"numinlets" : 2,
					"numoutlets" : 1,
					"fontsize" : 12.0
				}

			}
, 			{
				"box" : 				{
					"maxclass" : "message",
					"text" : "startwindow",
					"outlettype" : [ "" ],
					"patching_rect" : [ 462.0, 582.0, 74.0, 18.0 ],
					"id" : "obj-51",
					"fontname" : "Arial",
					"numinlets" : 2,
					"numoutlets" : 1,
					"fontsize" : 12.0
				}

			}
, 			{
				"box" : 				{
					"maxclass" : "newobj",
					"text" : "dac~",
					"patching_rect" : [ 535.0, 599.0, 37.0, 20.0 ],
					"id" : "obj-52",
					"fontname" : "Arial",
					"numinlets" : 2,
					"numoutlets" : 0,
					"fontsize" : 12.0
				}

			}
, 			{
				"box" : 				{
					"maxclass" : "gain~",
					"outlettype" : [ "signal", "int" ],
					"patching_rect" : [ 536.0, 492.0, 19.0, 92.0 ],
					"orientation" : 2,
					"id" : "obj-53",
					"numinlets" : 2,
					"numoutlets" : 2
				}

			}
, 			{
				"box" : 				{
					"maxclass" : "newobj",
					"text" : "line~",
					"outlettype" : [ "signal", "bang" ],
					"patching_rect" : [ 710.0, 304.0, 36.0, 20.0 ],
					"id" : "obj-54",
					"fontname" : "Arial",
					"numinlets" : 2,
					"numoutlets" : 2,
					"fontsize" : 12.0
				}

			}
, 			{
				"box" : 				{
					"maxclass" : "newobj",
					"text" : "*~",
					"outlettype" : [ "signal" ],
					"patching_rect" : [ 451.0, 481.0, 32.5, 20.0 ],
					"id" : "obj-55",
					"fontname" : "Arial",
					"numinlets" : 2,
					"numoutlets" : 1,
					"fontsize" : 12.0
				}

			}
, 			{
				"box" : 				{
					"maxclass" : "button",
					"outlettype" : [ "bang" ],
					"patching_rect" : [ 649.0, 168.0, 20.0, 20.0 ],
					"id" : "obj-56",
					"numinlets" : 1,
					"numoutlets" : 1
				}

			}
, 			{
				"box" : 				{
					"maxclass" : "function",
					"outlettype" : [ "float", "", "", "bang" ],
					"patching_rect" : [ 650.0, 196.0, 200.0, 100.0 ],
					"bordercolor" : [ 0.0, 0.0, 0.0, 1.0 ],
					"linecolor" : [ 0.333333, 0.333333, 0.333333, 1.0 ],
					"id" : "obj-57",
					"domain" : 125.0,
					"numinlets" : 1,
					"numoutlets" : 4,
					"pointcolor" : [ 0.321569, 0.321569, 0.321569, 1.0 ],
					"addpoints" : [ 0.0, 0.0, 0, 1.329787, 1.0, 0, 34.574425, 0.44, 0, 83.776642, 0.08, 0, 124.999939, 0.0, 0 ]
				}

			}
, 			{
				"box" : 				{
					"maxclass" : "kslider",
					"varname" : "nota",
					"outlettype" : [ "int", "int" ],
					"patching_rect" : [ 238.0, 108.0, 420.0, 53.0 ],
					"hkeycolor" : [ 0.501961, 0.501961, 0.501961, 1.0 ],
					"id" : "obj-59",
					"numinlets" : 2,
					"range" : 60,
					"presentation_rect" : [ 0.0, 0.0, 420.0, 54.0 ],
					"numoutlets" : 2
				}

			}
, 			{
				"box" : 				{
					"maxclass" : "comment",
					"text" : "cutoff fisso",
					"patching_rect" : [ 411.0, 212.0, 68.0, 20.0 ],
					"id" : "obj-60",
					"fontname" : "Arial",
					"numinlets" : 1,
					"numoutlets" : 0,
					"fontsize" : 12.0
				}

			}
, 			{
				"box" : 				{
					"maxclass" : "comment",
					"text" : "12 dB",
					"patching_rect" : [ 428.0, 174.0, 42.0, 20.0 ],
					"id" : "obj-61",
					"fontname" : "Arial",
					"numinlets" : 1,
					"numoutlets" : 0,
					"fontsize" : 12.0
				}

			}
, 			{
				"box" : 				{
					"maxclass" : "comment",
					"text" : "hard sync",
					"patching_rect" : [ 332.0, 184.0, 63.0, 20.0 ],
					"id" : "obj-62",
					"fontname" : "Arial",
					"numinlets" : 1,
					"numoutlets" : 0,
					"fontsize" : 12.0
				}

			}
, 			{
				"box" : 				{
					"maxclass" : "comment",
					"text" : "pulse width",
					"patching_rect" : [ 326.0, 242.0, 71.0, 20.0 ],
					"id" : "obj-63",
					"fontname" : "Arial",
					"numinlets" : 1,
					"numoutlets" : 0,
					"fontsize" : 12.0
				}

			}
, 			{
				"box" : 				{
					"maxclass" : "comment",
					"text" : "mix",
					"patching_rect" : [ 190.0, 205.0, 29.0, 20.0 ],
					"id" : "obj-64",
					"fontname" : "Arial",
					"numinlets" : 1,
					"numoutlets" : 0,
					"fontsize" : 12.0
				}

			}
, 			{
				"box" : 				{
					"maxclass" : "comment",
					"text" : "Lowpass Filter",
					"patching_rect" : [ 476.0, 180.0, 119.0, 20.0 ],
					"id" : "obj-65",
					"fontname" : "Arial Bold",
					"numinlets" : 1,
					"numoutlets" : 0,
					"fontsize" : 12.0
				}

			}
, 			{
				"box" : 				{
					"maxclass" : "comment",
					"text" : "OSC 1",
					"patching_rect" : [ 120.0, 174.0, 47.0, 20.0 ],
					"id" : "obj-68",
					"fontname" : "Arial",
					"numinlets" : 1,
					"numoutlets" : 0,
					"fontsize" : 12.0
				}

			}
, 			{
				"box" : 				{
					"maxclass" : "panel",
					"bgcolor" : [ 0.776471, 0.8, 0.498039, 1.0 ],
					"patching_rect" : [ 113.0, 166.0, 286.0, 132.0 ],
					"rounded" : 0,
					"background" : 1,
					"id" : "obj-69",
					"numinlets" : 1,
					"numoutlets" : 0
				}

			}
, 			{
				"box" : 				{
					"maxclass" : "panel",
					"bgcolor" : [ 0.509804, 0.627451, 0.470588, 1.0 ],
					"patching_rect" : [ 401.0, 166.0, 245.0, 87.0 ],
					"rounded" : 0,
					"background" : 1,
					"id" : "obj-66",
					"numinlets" : 1,
					"numoutlets" : 0
				}

			}
, 			{
				"box" : 				{
					"maxclass" : "panel",
					"bgcolor" : [ 0.760784, 0.658824, 0.721569, 1.0 ],
					"patching_rect" : [ 401.0, 255.0, 245.0, 43.0 ],
					"rounded" : 0,
					"background" : 1,
					"id" : "obj-67",
					"numinlets" : 1,
					"numoutlets" : 0
				}

			}
 ],
		"lines" : [ 			{
				"patchline" : 				{
					"source" : [ "obj-121", 0 ],
					"destination" : [ "obj-70", 0 ],
					"hidden" : 0,
					"midpoints" : [ 294.5, 465.0, 332.5, 465.0 ]
				}

			}
, 			{
				"patchline" : 				{
					"source" : [ "obj-70", 0 ],
					"destination" : [ "obj-108", 2 ],
					"hidden" : 0,
					"midpoints" : [  ]
				}

			}
, 			{
				"patchline" : 				{
					"source" : [ "obj-42", 0 ],
					"destination" : [ "obj-16", 0 ],
					"hidden" : 0,
					"midpoints" : [  ]
				}

			}
, 			{
				"patchline" : 				{
					"source" : [ "obj-156", 0 ],
					"destination" : [ "obj-42", 0 ],
					"hidden" : 0,
					"midpoints" : [ 446.5, 372.0, 523.5, 372.0 ]
				}

			}
, 			{
				"patchline" : 				{
					"source" : [ "obj-163", 0 ],
					"destination" : [ "obj-21", 0 ],
					"hidden" : 0,
					"midpoints" : [ 793.5, 447.0, 770.0, 447.0, 770.0, 418.0, 716.5, 418.0 ]
				}

			}
, 			{
				"patchline" : 				{
					"source" : [ "obj-161", 0 ],
					"destination" : [ "obj-19", 0 ],
					"hidden" : 0,
					"midpoints" : [ 537.5, 372.0, 588.5, 372.0 ]
				}

			}
, 			{
				"patchline" : 				{
					"source" : [ "obj-83", 0 ],
					"destination" : [ "obj-107", 2 ],
					"hidden" : 0,
					"midpoints" : [  ]
				}

			}
, 			{
				"patchline" : 				{
					"source" : [ "obj-81", 0 ],
					"destination" : [ "obj-107", 0 ],
					"hidden" : 0,
					"midpoints" : [  ]
				}

			}
, 			{
				"patchline" : 				{
					"source" : [ "obj-15", 0 ],
					"destination" : [ "obj-107", 3 ],
					"hidden" : 0,
					"midpoints" : [  ]
				}

			}
, 			{
				"patchline" : 				{
					"source" : [ "obj-93", 0 ],
					"destination" : [ "obj-107", 1 ],
					"hidden" : 0,
					"midpoints" : [  ]
				}

			}
, 			{
				"patchline" : 				{
					"source" : [ "obj-82", 0 ],
					"destination" : [ "obj-108", 0 ],
					"hidden" : 0,
					"midpoints" : [  ]
				}

			}
, 			{
				"patchline" : 				{
					"source" : [ "obj-93", 1 ],
					"destination" : [ "obj-108", 1 ],
					"hidden" : 0,
					"midpoints" : [  ]
				}

			}
, 			{
				"patchline" : 				{
					"source" : [ "obj-160", 0 ],
					"destination" : [ "obj-148", 0 ],
					"hidden" : 0,
					"midpoints" : [  ]
				}

			}
, 			{
				"patchline" : 				{
					"source" : [ "obj-159", 0 ],
					"destination" : [ "obj-145", 0 ],
					"hidden" : 0,
					"midpoints" : [  ]
				}

			}
, 			{
				"patchline" : 				{
					"source" : [ "obj-158", 0 ],
					"destination" : [ "obj-149", 0 ],
					"hidden" : 0,
					"midpoints" : [  ]
				}

			}
, 			{
				"patchline" : 				{
					"source" : [ "obj-114", 0 ],
					"destination" : [ "obj-104", 0 ],
					"hidden" : 0,
					"midpoints" : [  ]
				}

			}
, 			{
				"patchline" : 				{
					"source" : [ "obj-104", 0 ],
					"destination" : [ "obj-103", 0 ],
					"hidden" : 0,
					"midpoints" : [  ]
				}

			}
, 			{
				"patchline" : 				{
					"source" : [ "obj-93", 0 ],
					"destination" : [ "obj-15", 0 ],
					"hidden" : 0,
					"midpoints" : [  ]
				}

			}
, 			{
				"patchline" : 				{
					"source" : [ "obj-55", 0 ],
					"destination" : [ "obj-43", 0 ],
					"hidden" : 0,
					"midpoints" : [ 460.5, 507.0, 505.0, 507.0, 505.0, 484.0, 577.5, 484.0 ]
				}

			}
, 			{
				"patchline" : 				{
					"source" : [ "obj-23", 0 ],
					"destination" : [ "obj-22", 0 ],
					"hidden" : 0,
					"midpoints" : [  ]
				}

			}
, 			{
				"patchline" : 				{
					"source" : [ "obj-8", 0 ],
					"destination" : [ "obj-59", 0 ],
					"hidden" : 0,
					"midpoints" : [  ]
				}

			}
, 			{
				"patchline" : 				{
					"source" : [ "obj-55", 0 ],
					"destination" : [ "obj-53", 0 ],
					"hidden" : 0,
					"midpoints" : [ 460.5, 507.0, 505.0, 507.0, 505.0, 484.0, 543.5, 484.0 ]
				}

			}
, 			{
				"patchline" : 				{
					"source" : [ "obj-53", 0 ],
					"destination" : [ "obj-52", 0 ],
					"hidden" : 0,
					"midpoints" : [  ]
				}

			}
, 			{
				"patchline" : 				{
					"source" : [ "obj-51", 0 ],
					"destination" : [ "obj-52", 0 ],
					"hidden" : 0,
					"midpoints" : [  ]
				}

			}
, 			{
				"patchline" : 				{
					"source" : [ "obj-50", 0 ],
					"destination" : [ "obj-52", 0 ],
					"hidden" : 0,
					"midpoints" : [  ]
				}

			}
, 			{
				"patchline" : 				{
					"source" : [ "obj-53", 0 ],
					"destination" : [ "obj-52", 1 ],
					"hidden" : 0,
					"midpoints" : [  ]
				}

			}
, 			{
				"patchline" : 				{
					"source" : [ "obj-44", 0 ],
					"destination" : [ "obj-45", 0 ],
					"hidden" : 0,
					"midpoints" : [  ]
				}

			}
, 			{
				"patchline" : 				{
					"source" : [ "obj-45", 0 ],
					"destination" : [ "obj-8", 0 ],
					"hidden" : 0,
					"midpoints" : [  ]
				}

			}
, 			{
				"patchline" : 				{
					"source" : [ "obj-7", 0 ],
					"destination" : [ "obj-8", 1 ],
					"hidden" : 0,
					"midpoints" : [  ]
				}

			}
, 			{
				"patchline" : 				{
					"source" : [ "obj-4", 0 ],
					"destination" : [ "obj-45", 1 ],
					"hidden" : 0,
					"midpoints" : [  ]
				}

			}
, 			{
				"patchline" : 				{
					"source" : [ "obj-6", 0 ],
					"destination" : [ "obj-8", 2 ],
					"hidden" : 0,
					"midpoints" : [  ]
				}

			}
, 			{
				"patchline" : 				{
					"source" : [ "obj-59", 1 ],
					"destination" : [ "obj-56", 0 ],
					"hidden" : 0,
					"midpoints" : [  ]
				}

			}
, 			{
				"patchline" : 				{
					"source" : [ "obj-5", 0 ],
					"destination" : [ "obj-57", 0 ],
					"hidden" : 0,
					"midpoints" : [  ]
				}

			}
, 			{
				"patchline" : 				{
					"source" : [ "obj-20", 0 ],
					"destination" : [ "obj-57", 0 ],
					"hidden" : 0,
					"midpoints" : [  ]
				}

			}
, 			{
				"patchline" : 				{
					"source" : [ "obj-56", 0 ],
					"destination" : [ "obj-57", 0 ],
					"hidden" : 0,
					"midpoints" : [  ]
				}

			}
, 			{
				"patchline" : 				{
					"source" : [ "obj-57", 1 ],
					"destination" : [ "obj-54", 0 ],
					"hidden" : 0,
					"midpoints" : [  ]
				}

			}
, 			{
				"patchline" : 				{
					"source" : [ "obj-4", 0 ],
					"destination" : [ "obj-5", 0 ],
					"hidden" : 0,
					"midpoints" : [ 298.5, 30.0, 591.0, 30.0, 591.0, 30.0, 721.5, 30.0 ]
				}

			}
, 			{
				"patchline" : 				{
					"source" : [ "obj-148", 0 ],
					"destination" : [ "obj-71", 3 ],
					"hidden" : 0,
					"midpoints" : [  ]
				}

			}
, 			{
				"patchline" : 				{
					"source" : [ "obj-54", 0 ],
					"destination" : [ "obj-71", 4 ],
					"hidden" : 0,
					"midpoints" : [ 719.5, 333.0, 936.5, 333.0 ]
				}

			}
, 			{
				"patchline" : 				{
					"source" : [ "obj-145", 0 ],
					"destination" : [ "obj-71", 2 ],
					"hidden" : 0,
					"midpoints" : [  ]
				}

			}
, 			{
				"patchline" : 				{
					"source" : [ "obj-149", 0 ],
					"destination" : [ "obj-71", 1 ],
					"hidden" : 0,
					"midpoints" : [  ]
				}

			}
, 			{
				"patchline" : 				{
					"source" : [ "obj-54", 0 ],
					"destination" : [ "obj-55", 1 ],
					"hidden" : 0,
					"midpoints" : [ 719.5, 333.0, 952.0, 333.0, 952.0, 473.0, 474.0, 473.0 ]
				}

			}
, 			{
				"patchline" : 				{
					"source" : [ "obj-117", 0 ],
					"destination" : [ "obj-73", 0 ],
					"hidden" : 0,
					"midpoints" : [  ]
				}

			}
, 			{
				"patchline" : 				{
					"source" : [ "obj-73", 0 ],
					"destination" : [ "obj-93", 0 ],
					"hidden" : 0,
					"midpoints" : [  ]
				}

			}
, 			{
				"patchline" : 				{
					"source" : [ "obj-118", 0 ],
					"destination" : [ "obj-77", 0 ],
					"hidden" : 0,
					"midpoints" : [  ]
				}

			}
, 			{
				"patchline" : 				{
					"source" : [ "obj-77", 0 ],
					"destination" : [ "obj-93", 1 ],
					"hidden" : 0,
					"midpoints" : [  ]
				}

			}
, 			{
				"patchline" : 				{
					"source" : [ "obj-116", 0 ],
					"destination" : [ "obj-75", 0 ],
					"hidden" : 0,
					"midpoints" : [  ]
				}

			}
, 			{
				"patchline" : 				{
					"source" : [ "obj-75", 0 ],
					"destination" : [ "obj-93", 2 ],
					"hidden" : 0,
					"midpoints" : [  ]
				}

			}
, 			{
				"patchline" : 				{
					"source" : [ "obj-122", 0 ],
					"destination" : [ "obj-79", 0 ],
					"hidden" : 0,
					"midpoints" : [  ]
				}

			}
, 			{
				"patchline" : 				{
					"source" : [ "obj-115", 0 ],
					"destination" : [ "obj-81", 0 ],
					"hidden" : 0,
					"midpoints" : [  ]
				}

			}
, 			{
				"patchline" : 				{
					"source" : [ "obj-119", 0 ],
					"destination" : [ "obj-82", 0 ],
					"hidden" : 0,
					"midpoints" : [  ]
				}

			}
, 			{
				"patchline" : 				{
					"source" : [ "obj-120", 0 ],
					"destination" : [ "obj-83", 0 ],
					"hidden" : 0,
					"midpoints" : [  ]
				}

			}
, 			{
				"patchline" : 				{
					"source" : [ "obj-157", 0 ],
					"destination" : [ "obj-84", 0 ],
					"hidden" : 0,
					"midpoints" : [  ]
				}

			}
, 			{
				"patchline" : 				{
					"source" : [ "obj-84", 0 ],
					"destination" : [ "obj-71", 0 ],
					"hidden" : 0,
					"midpoints" : [  ]
				}

			}
, 			{
				"patchline" : 				{
					"source" : [ "obj-107", 0 ],
					"destination" : [ "obj-106", 0 ],
					"hidden" : 0,
					"midpoints" : [  ]
				}

			}
, 			{
				"patchline" : 				{
					"source" : [ "obj-108", 0 ],
					"destination" : [ "obj-106", 1 ],
					"hidden" : 0,
					"midpoints" : [  ]
				}

			}
, 			{
				"patchline" : 				{
					"source" : [ "obj-103", 0 ],
					"destination" : [ "obj-106", 2 ],
					"hidden" : 0,
					"midpoints" : [  ]
				}

			}
, 			{
				"patchline" : 				{
					"source" : [ "obj-105", 0 ],
					"destination" : [ "obj-108", 3 ],
					"hidden" : 0,
					"midpoints" : [  ]
				}

			}
, 			{
				"patchline" : 				{
					"source" : [ "obj-15", 0 ],
					"destination" : [ "obj-105", 0 ],
					"hidden" : 0,
					"midpoints" : [ 181.5, 414.0, 387.5, 414.0 ]
				}

			}
, 			{
				"patchline" : 				{
					"source" : [ "obj-79", 0 ],
					"destination" : [ "obj-105", 1 ],
					"hidden" : 0,
					"midpoints" : [ 339.5, 405.0, 409.0, 405.0 ]
				}

			}
, 			{
				"patchline" : 				{
					"source" : [ "obj-106", 0 ],
					"destination" : [ "obj-165", 0 ],
					"hidden" : 0,
					"midpoints" : [ 108.5, 598.0, 414.0, 598.0, 414.0, 444.0, 459.5, 444.0 ]
				}

			}
, 			{
				"patchline" : 				{
					"source" : [ "obj-21", 0 ],
					"destination" : [ "obj-165", 4 ],
					"hidden" : 0,
					"midpoints" : [  ]
				}

			}
, 			{
				"patchline" : 				{
					"source" : [ "obj-19", 0 ],
					"destination" : [ "obj-165", 2 ],
					"hidden" : 0,
					"midpoints" : [  ]
				}

			}
, 			{
				"patchline" : 				{
					"source" : [ "obj-16", 0 ],
					"destination" : [ "obj-165", 1 ],
					"hidden" : 0,
					"midpoints" : [  ]
				}

			}
, 			{
				"patchline" : 				{
					"source" : [ "obj-165", 0 ],
					"destination" : [ "obj-55", 0 ],
					"hidden" : 0,
					"midpoints" : [  ]
				}

			}
, 			{
				"patchline" : 				{
					"source" : [ "obj-71", 0 ],
					"destination" : [ "obj-165", 3 ],
					"hidden" : 0,
					"midpoints" : [ 626.5, 416.0, 652.25, 416.0 ]
				}

			}
 ]
	}

}
